<svg width="114" height="69" viewBox="0 0 114 69" fill="none" xmlns="http://www.w3.org/2000/svg">
<path d="M25.2744 51.9446C25.0569 51.8116 24.747 51.6134 24.3604 51.343C23.5565 50.781 22.4195 49.9074 21.0859 48.6584C18.4331 46.1739 15.0021 42.2054 11.8613 36.2581L11.3291 37.052C11.3298 37.0539 11.3313 37.0558 11.332 37.0579C11.3409 37.0825 11.3543 37.1194 11.3721 37.1672C11.4078 37.2633 11.4613 37.4047 11.5332 37.5852C11.6771 37.9467 11.8939 38.4661 12.1846 39.095C12.766 40.3529 13.644 42.0497 14.8281 43.8069C17.1318 47.2254 20.5885 50.8598 25.2744 51.9446Z" fill="#B0BBAA" stroke="black" stroke-width="0.133333"/>
<path d="M11.2559 37.0424C11.2559 37.0424 15.8298 50.1622 25.6687 52.0979C25.6687 52.0979 18.1697 48.1189 11.8674 36.1282L11.2559 37.0424Z" fill="#B0BBAA" stroke="black" stroke-width="1.33333" stroke-miterlimit="10"/>
<mask id="path-3-inside-1_190_94" fill="white">
<path d="M24.1783 51.4465C24.8281 51.851 25.5881 52.0445 26.3338 52.1949C27.0863 52.3368 27.8526 52.393 28.6177 52.4049L29.1919 52.4055L29.7658 52.3805C30.1486 52.3721 30.5294 52.3207 30.9111 52.2937C31.2922 52.2565 31.6718 52.2013 32.052 52.156L32.6175 52.0592C32.8006 52.0158 32.9844 51.98 33.167 51.9313C33.8993 51.7384 34.6072 51.4588 35.2665 51.0913C35.9216 50.7169 36.5307 50.2614 37.0631 49.7255C38.1284 48.6569 38.9292 47.3159 39.3876 45.8735C39.445 45.6936 39.4956 45.5118 39.5376 45.3305C39.5487 45.2852 39.5578 45.2402 39.5671 45.1952L39.5799 45.1303L39.5926 45.0582C39.6099 44.9621 39.6268 44.8659 39.6383 44.7754C39.6909 44.4073 39.7195 44.0287 39.7163 43.6574C39.7088 43.2854 39.6657 42.9176 39.5803 42.564C39.4966 42.2093 39.3479 41.8802 39.161 41.5813C38.9763 41.2776 38.7119 41.0392 38.4344 40.8238C38.137 40.6312 37.8216 40.4668 37.4699 40.3605C37.3792 40.3323 37.2844 40.2963 37.1969 40.2747L36.9393 40.2167C36.855 40.1937 36.7654 40.1818 36.675 40.171C36.5851 40.1605 36.496 40.1437 36.4056 40.1366C36.0435 40.1095 35.6753 40.1208 35.3008 40.1549C34.5511 40.2289 33.7728 40.3493 32.988 40.3834C32.2025 40.4201 31.4149 40.3831 30.6368 40.2988C29.8575 40.2196 29.0883 40.0487 28.3413 39.9257C27.5928 39.8035 26.8318 39.7314 26.0723 39.7085C25.3125 39.6877 24.5505 39.7192 23.8016 39.8266C23.4277 39.8818 23.0573 39.9576 22.6994 40.065C22.3445 40.1741 21.9932 40.3163 21.7153 40.527C21.5779 40.6314 21.4638 40.7604 21.4274 40.8956C21.3885 41.0285 21.4244 41.1723 21.5171 41.309C21.5412 41.3426 21.5611 41.3782 21.5932 41.4087L21.6731 41.4957C21.7476 41.5555 21.8252 41.6259 21.8936 41.6563C22.0286 41.7426 22.2116 41.8014 22.3831 41.8488C22.7378 41.9354 23.1164 41.9493 23.4912 41.9257C23.867 41.9019 24.2422 41.8418 24.6121 41.7552C25.3515 41.5768 26.0704 41.3052 26.7605 40.9738C27.4496 40.6386 28.1068 40.2367 28.7333 39.7919C29.3589 39.3453 29.9557 38.8557 30.5133 38.3237C31.0697 37.7902 31.5901 37.2192 32.0777 36.6212C32.325 36.3249 32.5529 36.0129 32.7847 35.7042C33.0042 35.3864 33.2302 35.0731 33.4339 34.7445C33.6479 34.4227 33.8382 34.0858 34.0364 33.7539L34.5825 32.7274C34.6701 32.5544 34.7695 32.3856 34.8475 32.2089L35.0893 31.6821C35.2466 31.3291 35.4219 30.9854 35.5572 30.6215L35.9855 29.5422L36.3634 28.444C36.8389 26.9704 37.1985 25.46 37.4371 23.9321C37.5041 23.5511 37.5398 23.1657 37.5926 22.7831C37.6142 22.5912 37.6295 22.3986 37.6483 22.2063C37.6671 22.014 37.6847 21.8219 37.6941 21.6291C37.7476 20.8622 37.7712 20.0804 37.7294 19.3301L37.7286 19.3158L37.7289 19.3019C37.7552 18.0953 37.7335 16.8768 37.6813 15.666C37.6253 14.4544 37.5403 13.2442 37.4036 12.042C37.2664 10.8401 37.0805 9.64428 36.8051 8.47495C36.5251 7.31142 36.1678 6.15451 35.5906 5.14375C35.3015 4.64304 34.95 4.18282 34.5197 3.84939C34.4121 3.76648 34.2996 3.69276 34.1835 3.62808C34.1238 3.59937 34.067 3.56371 34.0057 3.53967L33.9145 3.50193L33.8688 3.48306C33.8736 3.48419 33.842 3.47322 33.8768 3.48467L33.8633 3.48064L33.8361 3.47257C33.6935 3.43305 33.5421 3.37998 33.4068 3.35159C33.2761 3.33466 33.1529 3.30481 33.0175 3.29368C32.4684 3.24173 31.9038 3.31707 31.3568 3.47709C30.8089 3.6363 30.2772 3.87698 29.7683 4.16491C28.7486 4.7416 27.8126 5.48572 26.9315 6.28839C26.053 7.09607 25.2294 7.97231 24.4612 8.89322C24.0731 9.35425 23.7154 9.82285 23.3692 10.3177C23.0231 10.8118 22.6777 11.3075 22.3436 11.8115C21.6717 12.8169 21.0268 13.8414 20.4029 14.8789C19.7858 15.9204 19.1862 16.9727 18.6206 18.044C18.3353 18.5781 18.0655 19.1204 17.7917 19.6606L17.3982 20.4796C17.2657 20.7521 17.1355 21.0255 17.0128 21.3023L16.637 22.1298C16.5107 22.4052 16.4001 22.6871 16.2807 22.9657C16.1651 23.2448 16.043 23.5253 15.9323 23.8032L15.6004 24.6538L14.2736 28.0558L12.9341 31.4533C12.7056 32.0179 12.4949 32.588 12.2849 33.1587L11.6448 34.8679L11.5845 34.8476L12.1597 33.1127C12.3522 32.5343 12.5458 31.956 12.7562 31.3851L13.9932 27.9484L15.2427 24.5165L15.5549 23.6585C15.663 23.3685 15.7775 23.0883 15.8884 22.8026C16.0023 22.519 16.1075 22.2318 16.2284 21.9512L16.5882 21.1082L16.7688 20.6871L16.9609 20.2712L17.3462 19.4398C17.6144 18.8915 17.8791 18.3408 18.1592 17.7983C18.7141 16.7106 19.3035 15.6416 19.9109 14.5829C20.5252 13.5285 21.1608 12.4864 21.8247 11.4622C22.1545 10.9486 22.4963 10.4428 22.8454 9.94077C23.1921 9.43797 23.5683 8.93823 23.959 8.46849C24.7393 7.52112 25.5745 6.62037 26.4745 5.78189C27.3752 4.94517 28.3526 4.17862 29.4381 3.56242C29.981 3.25626 30.557 2.99445 31.1686 2.81685C31.7782 2.6399 32.4295 2.54746 33.0829 2.61311C33.2472 2.62795 33.4192 2.66731 33.5863 2.69603C33.7449 2.73232 33.8789 2.78168 34.0263 2.82395L34.0534 2.83217L34.067 2.8362C34.1106 2.85121 34.0876 2.84395 34.101 2.84879L34.1599 2.87347L34.2775 2.92331C34.3563 2.95589 34.4287 3.0001 34.5043 3.03849C34.6514 3.12172 34.7915 3.21544 34.9228 3.31852C35.4483 3.73357 35.838 4.26509 36.1516 4.81612C36.773 5.92787 37.1274 7.1306 37.408 8.33187C37.682 9.53701 37.8612 10.7554 37.991 11.976C38.1209 13.1966 38.1975 14.4207 38.2345 15.6448C38.2706 16.8701 38.2762 18.0909 38.2324 19.3211L38.232 19.293C38.2647 20.1001 38.232 20.8793 38.1624 21.6659C38.1485 21.8622 38.1267 22.0575 38.1035 22.2527C38.0804 22.4479 38.0606 22.6436 38.0348 22.8383C37.9732 23.2262 37.9285 23.6168 37.8527 24.0021C37.5799 25.5484 37.1796 27.0685 36.6741 28.5503C36.1734 30.0325 35.5236 31.4661 34.797 32.845L34.2379 33.8723C34.0353 34.2063 33.8408 34.5452 33.6225 34.8691C33.4144 35.1996 33.184 35.515 32.9599 35.8345C32.7237 36.145 32.4911 36.4586 32.2393 36.7566C31.2477 37.9604 30.1128 39.0465 28.8492 39.9571C27.5845 40.8612 26.1877 41.6055 24.67 41.9978C24.2898 42.0912 23.9029 42.1604 23.5099 42.1958C23.1172 42.2288 22.7156 42.2253 22.3176 42.1383C22.1175 42.0866 21.9257 42.0353 21.7298 41.9186C21.6232 41.8646 21.5568 41.8031 21.4786 41.7441C21.4826 41.748 21.4571 41.7268 21.4547 41.7234L21.4407 41.7089L21.4127 41.6799L21.3571 41.6218C21.3183 41.5855 21.287 41.5378 21.254 41.4929C21.2379 41.4699 21.2208 41.4479 21.206 41.4239L21.1667 41.3453C21.1541 41.3187 21.1401 41.2931 21.1294 41.2653L21.1051 41.1764C21.071 41.0585 21.0777 40.9256 21.1069 40.805C21.1726 40.5596 21.3371 40.386 21.5 40.2533C21.8351 39.9886 22.2115 39.8331 22.5882 39.7063C22.9669 39.5832 23.3523 39.495 23.7398 39.4293C24.5152 39.3004 25.2985 39.2514 26.0798 39.2556C26.8618 39.2619 27.6402 39.3182 28.4166 39.4272C28.613 39.453 28.8043 39.4837 28.9934 39.5158L29.5628 39.6061C29.751 39.6337 29.9383 39.6705 30.1269 39.6924L30.6928 39.7576C31.4481 39.8302 32.205 39.856 32.9597 39.8126C33.7162 39.7779 34.4645 39.66 35.2485 39.58C35.6416 39.5432 36.0459 39.5285 36.4531 39.5585C36.5547 39.5664 36.6559 39.5837 36.7572 39.5966C36.8584 39.6095 36.9595 39.624 37.062 39.6514L37.3677 39.724C37.4671 39.7501 37.5529 39.7839 37.6461 39.8135C38.0332 39.9332 38.4103 40.1265 38.7582 40.3586C38.8424 40.4209 38.9217 40.4917 39.0034 40.5583L39.1247 40.6601C39.1625 40.6969 39.1971 40.7374 39.2333 40.7759C39.304 40.855 39.3783 40.9309 39.445 41.0129L39.6268 41.2737C39.8497 41.6325 40.0199 42.0241 40.1137 42.429C40.2091 42.8331 40.2538 43.2436 40.2596 43.6511C40.2615 44.0594 40.2268 44.4594 40.164 44.8617C40.1493 44.9643 40.1313 45.06 40.1129 45.1551L40.0995 45.2269L40.0833 45.3052C40.0722 45.3555 40.0614 45.4058 40.0486 45.4547C40.0003 45.6525 39.9441 45.8452 39.8809 46.0356C39.6306 46.797 39.2887 47.5217 38.8713 48.2002C38.4523 48.8772 37.9548 49.5073 37.3779 50.0549C36.8056 50.6073 36.1544 51.0731 35.4596 51.4506C34.7606 51.8214 34.0155 52.0968 33.2522 52.2807C33.0612 52.3271 32.8653 52.3617 32.6722 52.4023L32.0956 52.4884C31.7093 52.5262 31.3245 52.5738 30.9375 52.6033L30.3565 52.6365C30.1631 52.6504 29.9691 52.6544 29.7747 52.6548L29.1928 52.6609L28.6108 52.6407C27.8358 52.6031 27.0612 52.5204 26.3022 52.3507C25.9233 52.2657 25.5475 52.1624 25.1834 52.0245C24.8211 51.8834 24.4613 51.7296 24.1406 51.4988L24.1783 51.4465Z"/>
</mask>
<path d="M24.1783 51.4465C24.8281 51.851 25.5881 52.0445 26.3338 52.1949C27.0863 52.3368 27.8526 52.393 28.6177 52.4049L29.1919 52.4055L29.7658 52.3805C30.1486 52.3721 30.5294 52.3207 30.9111 52.2937C31.2922 52.2565 31.6718 52.2013 32.052 52.156L32.6175 52.0592C32.8006 52.0158 32.9844 51.98 33.167 51.9313C33.8993 51.7384 34.6072 51.4588 35.2665 51.0913C35.9216 50.7169 36.5307 50.2614 37.0631 49.7255C38.1284 48.6569 38.9292 47.3159 39.3876 45.8735C39.445 45.6936 39.4956 45.5118 39.5376 45.3305C39.5487 45.2852 39.5578 45.2402 39.5671 45.1952L39.5799 45.1303L39.5926 45.0582C39.6099 44.9621 39.6268 44.8659 39.6383 44.7754C39.6909 44.4073 39.7195 44.0287 39.7163 43.6574C39.7088 43.2854 39.6657 42.9176 39.5803 42.564C39.4966 42.2093 39.3479 41.8802 39.161 41.5813C38.9763 41.2776 38.7119 41.0392 38.4344 40.8238C38.137 40.6312 37.8216 40.4668 37.4699 40.3605C37.3792 40.3323 37.2844 40.2963 37.1969 40.2747L36.9393 40.2167C36.855 40.1937 36.7654 40.1818 36.675 40.171C36.5851 40.1605 36.496 40.1437 36.4056 40.1366C36.0435 40.1095 35.6753 40.1208 35.3008 40.1549C34.5511 40.2289 33.7728 40.3493 32.988 40.3834C32.2025 40.4201 31.4149 40.3831 30.6368 40.2988C29.8575 40.2196 29.0883 40.0487 28.3413 39.9257C27.5928 39.8035 26.8318 39.7314 26.0723 39.7085C25.3125 39.6877 24.5505 39.7192 23.8016 39.8266C23.4277 39.8818 23.0573 39.9576 22.6994 40.065C22.3445 40.1741 21.9932 40.3163 21.7153 40.527C21.5779 40.6314 21.4638 40.7604 21.4274 40.8956C21.3885 41.0285 21.4244 41.1723 21.5171 41.309C21.5412 41.3426 21.5611 41.3782 21.5932 41.4087L21.6731 41.4957C21.7476 41.5555 21.8252 41.6259 21.8936 41.6563C22.0286 41.7426 22.2116 41.8014 22.3831 41.8488C22.7378 41.9354 23.1164 41.9493 23.4912 41.9257C23.867 41.9019 24.2422 41.8418 24.6121 41.7552C25.3515 41.5768 26.0704 41.3052 26.7605 40.9738C27.4496 40.6386 28.1068 40.2367 28.7333 39.7919C29.3589 39.3453 29.9557 38.8557 30.5133 38.3237C31.0697 37.7902 31.5901 37.2192 32.0777 36.6212C32.325 36.3249 32.5529 36.0129 32.7847 35.7042C33.0042 35.3864 33.2302 35.0731 33.4339 34.7445C33.6479 34.4227 33.8382 34.0858 34.0364 33.7539L34.5825 32.7274C34.6701 32.5544 34.7695 32.3856 34.8475 32.2089L35.0893 31.6821C35.2466 31.3291 35.4219 30.9854 35.5572 30.6215L35.9855 29.5422L36.3634 28.444C36.8389 26.9704 37.1985 25.46 37.4371 23.9321C37.5041 23.5511 37.5398 23.1657 37.5926 22.7831C37.6142 22.5912 37.6295 22.3986 37.6483 22.2063C37.6671 22.014 37.6847 21.8219 37.6941 21.6291C37.7476 20.8622 37.7712 20.0804 37.7294 19.3301L37.7286 19.3158L37.7289 19.3019C37.7552 18.0953 37.7335 16.8768 37.6813 15.666C37.6253 14.4544 37.5403 13.2442 37.4036 12.042C37.2664 10.8401 37.0805 9.64428 36.8051 8.47495C36.5251 7.31142 36.1678 6.15451 35.5906 5.14375C35.3015 4.64304 34.95 4.18282 34.5197 3.84939C34.4121 3.76648 34.2996 3.69276 34.1835 3.62808C34.1238 3.59937 34.067 3.56371 34.0057 3.53967L33.9145 3.50193L33.8688 3.48306C33.8736 3.48419 33.842 3.47322 33.8768 3.48467L33.8633 3.48064L33.8361 3.47257C33.6935 3.43305 33.5421 3.37998 33.4068 3.35159C33.2761 3.33466 33.1529 3.30481 33.0175 3.29368C32.4684 3.24173 31.9038 3.31707 31.3568 3.47709C30.8089 3.6363 30.2772 3.87698 29.7683 4.16491C28.7486 4.7416 27.8126 5.48572 26.9315 6.28839C26.053 7.09607 25.2294 7.97231 24.4612 8.89322C24.0731 9.35425 23.7154 9.82285 23.3692 10.3177C23.0231 10.8118 22.6777 11.3075 22.3436 11.8115C21.6717 12.8169 21.0268 13.8414 20.4029 14.8789C19.7858 15.9204 19.1862 16.9727 18.6206 18.044C18.3353 18.5781 18.0655 19.1204 17.7917 19.6606L17.3982 20.4796C17.2657 20.7521 17.1355 21.0255 17.0128 21.3023L16.637 22.1298C16.5107 22.4052 16.4001 22.6871 16.2807 22.9657C16.1651 23.2448 16.043 23.5253 15.9323 23.8032L15.6004 24.6538L14.2736 28.0558L12.9341 31.4533C12.7056 32.0179 12.4949 32.588 12.2849 33.1587L11.6448 34.8679L11.5845 34.8476L12.1597 33.1127C12.3522 32.5343 12.5458 31.956 12.7562 31.3851L13.9932 27.9484L15.2427 24.5165L15.5549 23.6585C15.663 23.3685 15.7775 23.0883 15.8884 22.8026C16.0023 22.519 16.1075 22.2318 16.2284 21.9512L16.5882 21.1082L16.7688 20.6871L16.9609 20.2712L17.3462 19.4398C17.6144 18.8915 17.8791 18.3408 18.1592 17.7983C18.7141 16.7106 19.3035 15.6416 19.9109 14.5829C20.5252 13.5285 21.1608 12.4864 21.8247 11.4622C22.1545 10.9486 22.4963 10.4428 22.8454 9.94077C23.1921 9.43797 23.5683 8.93823 23.959 8.46849C24.7393 7.52112 25.5745 6.62037 26.4745 5.78189C27.3752 4.94517 28.3526 4.17862 29.4381 3.56242C29.981 3.25626 30.557 2.99445 31.1686 2.81685C31.7782 2.6399 32.4295 2.54746 33.0829 2.61311C33.2472 2.62795 33.4192 2.66731 33.5863 2.69603C33.7449 2.73232 33.8789 2.78168 34.0263 2.82395L34.0534 2.83217L34.067 2.8362C34.1106 2.85121 34.0876 2.84395 34.101 2.84879L34.1599 2.87347L34.2775 2.92331C34.3563 2.95589 34.4287 3.0001 34.5043 3.03849C34.6514 3.12172 34.7915 3.21544 34.9228 3.31852C35.4483 3.73357 35.838 4.26509 36.1516 4.81612C36.773 5.92787 37.1274 7.1306 37.408 8.33187C37.682 9.53701 37.8612 10.7554 37.991 11.976C38.1209 13.1966 38.1975 14.4207 38.2345 15.6448C38.2706 16.8701 38.2762 18.0909 38.2324 19.3211L38.232 19.293C38.2647 20.1001 38.232 20.8793 38.1624 21.6659C38.1485 21.8622 38.1267 22.0575 38.1035 22.2527C38.0804 22.4479 38.0606 22.6436 38.0348 22.8383C37.9732 23.2262 37.9285 23.6168 37.8527 24.0021C37.5799 25.5484 37.1796 27.0685 36.6741 28.5503C36.1734 30.0325 35.5236 31.4661 34.797 32.845L34.2379 33.8723C34.0353 34.2063 33.8408 34.5452 33.6225 34.8691C33.4144 35.1996 33.184 35.515 32.9599 35.8345C32.7237 36.145 32.4911 36.4586 32.2393 36.7566C31.2477 37.9604 30.1128 39.0465 28.8492 39.9571C27.5845 40.8612 26.1877 41.6055 24.67 41.9978C24.2898 42.0912 23.9029 42.1604 23.5099 42.1958C23.1172 42.2288 22.7156 42.2253 22.3176 42.1383C22.1175 42.0866 21.9257 42.0353 21.7298 41.9186C21.6232 41.8646 21.5568 41.8031 21.4786 41.7441C21.4826 41.748 21.4571 41.7268 21.4547 41.7234L21.4407 41.7089L21.4127 41.6799L21.3571 41.6218C21.3183 41.5855 21.287 41.5378 21.254 41.4929C21.2379 41.4699 21.2208 41.4479 21.206 41.4239L21.1667 41.3453C21.1541 41.3187 21.1401 41.2931 21.1294 41.2653L21.1051 41.1764C21.071 41.0585 21.0777 40.9256 21.1069 40.805C21.1726 40.5596 21.3371 40.386 21.5 40.2533C21.8351 39.9886 22.2115 39.8331 22.5882 39.7063C22.9669 39.5832 23.3523 39.495 23.7398 39.4293C24.5152 39.3004 25.2985 39.2514 26.0798 39.2556C26.8618 39.2619 27.6402 39.3182 28.4166 39.4272C28.613 39.453 28.8043 39.4837 28.9934 39.5158L29.5628 39.6061C29.751 39.6337 29.9383 39.6705 30.1269 39.6924L30.6928 39.7576C31.4481 39.8302 32.205 39.856 32.9597 39.8126C33.7162 39.7779 34.4645 39.66 35.2485 39.58C35.6416 39.5432 36.0459 39.5285 36.4531 39.5585C36.5547 39.5664 36.6559 39.5837 36.7572 39.5966C36.8584 39.6095 36.9595 39.624 37.062 39.6514L37.3677 39.724C37.4671 39.7501 37.5529 39.7839 37.6461 39.8135C38.0332 39.9332 38.4103 40.1265 38.7582 40.3586C38.8424 40.4209 38.9217 40.4917 39.0034 40.5583L39.1247 40.6601C39.1625 40.6969 39.1971 40.7374 39.2333 40.7759C39.304 40.855 39.3783 40.9309 39.445 41.0129L39.6268 41.2737C39.8497 41.6325 40.0199 42.0241 40.1137 42.429C40.2091 42.8331 40.2538 43.2436 40.2596 43.6511C40.2615 44.0594 40.2268 44.4594 40.164 44.8617C40.1493 44.9643 40.1313 45.06 40.1129 45.1551L40.0995 45.2269L40.0833 45.3052C40.0722 45.3555 40.0614 45.4058 40.0486 45.4547C40.0003 45.6525 39.9441 45.8452 39.8809 46.0356C39.6306 46.797 39.2887 47.5217 38.8713 48.2002C38.4523 48.8772 37.9548 49.5073 37.3779 50.0549C36.8056 50.6073 36.1544 51.0731 35.4596 51.4506C34.7606 51.8214 34.0155 52.0968 33.2522 52.2807C33.0612 52.3271 32.8653 52.3617 32.6722 52.4023L32.0956 52.4884C31.7093 52.5262 31.3245 52.5738 30.9375 52.6033L30.3565 52.6365C30.1631 52.6504 29.9691 52.6544 29.7747 52.6548L29.1928 52.6609L28.6108 52.6407C27.8358 52.6031 27.0612 52.5204 26.3022 52.3507C25.9233 52.2657 25.5475 52.1624 25.1834 52.0245C24.8211 51.8834 24.4613 51.7296 24.1406 51.4988L24.1783 51.4465Z" fill="#B0BBAA" stroke="black" stroke-width="0.266667" mask="url(#path-3-inside-1_190_94)"/>
<path d="M39.5659 46.801C39.7478 46.7258 40.0052 46.6073 40.3179 46.4319L40.3188 46.4309C40.481 46.3441 40.6544 46.236 40.8442 46.1135V46.1125C40.938 46.0491 41.0361 45.983 41.1372 45.9143L41.439 45.6858C41.8501 45.3664 42.285 44.9636 42.7124 44.4768C42.9241 44.2337 43.1282 43.9638 43.3306 43.677V43.676L43.6206 43.2209C43.6659 43.1411 43.7044 43.0736 43.7505 42.9924V42.9915L43.8804 42.7434C44.1303 42.245 44.3348 41.7017 44.5015 41.1311L44.6558 40.552C44.8432 39.768 44.983 38.9496 45.0435 38.1096C45.0725 37.69 45.08 37.2649 45.0503 36.8381V36.8372C45.0331 36.5175 44.9914 36.1958 44.9175 35.8792L44.8325 35.5637C44.7065 35.1471 44.5226 34.7388 44.2573 34.3821C44.1197 34.2049 43.9738 34.0346 43.8062 33.8918L43.8032 33.8889C43.7353 33.8235 43.6426 33.7572 43.5454 33.6868L43.5444 33.6848C43.4527 33.6133 43.3666 33.5711 43.2651 33.5061C42.4968 33.0671 41.6447 32.9035 40.8354 32.844C40.4303 32.8137 40.0309 32.8203 39.6431 32.8499H39.6421C39.2541 32.8787 38.8771 32.929 38.5161 33.0022L38.5151 33.0032L37.9819 33.1174C37.4598 33.2445 36.9718 33.4048 36.521 33.5745H36.522C35.9234 33.8063 35.3933 34.0626 34.9409 34.3176H34.9399C34.5998 34.5076 34.3036 34.6981 34.0503 34.8743L33.812 35.0452C33.542 35.2469 33.3325 35.4178 33.1851 35.5452C33.3514 35.4438 33.5819 35.3053 33.8755 35.1506H33.8765C34.1203 35.0233 34.4043 34.8782 34.728 34.7288L35.0659 34.5784C35.5332 34.3806 36.0664 34.1713 36.6626 33.9924V33.9934C37.2563 33.8107 37.9101 33.65 38.6069 33.5344V33.5334C38.7807 33.5062 38.9585 33.4809 39.1392 33.4622C39.3187 33.4367 39.5011 33.4213 39.6821 33.4045H39.6831C40.0522 33.3746 40.4287 33.3702 40.8081 33.3782H40.8091C41.5671 33.4018 42.3637 33.5317 43.0601 33.8899L43.063 33.8918C43.1027 33.9145 43.1437 33.9356 43.188 33.9592C43.2307 33.9821 43.2754 34.0062 43.3149 34.0344L43.314 34.0354L43.4272 34.1067L43.4263 34.1077C43.4491 34.1214 43.4727 34.1377 43.4927 34.1536C43.5145 34.1709 43.5335 34.1871 43.5522 34.2004C43.7147 34.3163 43.8557 34.4586 43.9888 34.6028C44.2597 34.8982 44.4694 35.2559 44.6284 35.637V35.6379C44.7837 36.0216 44.8887 36.4315 44.9468 36.8479V36.8489C45 37.2661 45.0096 37.6889 44.9829 38.1057C44.929 38.9402 44.7338 39.7488 44.4585 40.4905C44.1835 41.2325 43.8447 41.9148 43.5044 42.5383L43.5034 42.5403L43.3774 42.7668L43.3765 42.7678L43.2417 42.9993L43.2407 43.0012L42.9722 43.425L42.9702 43.427L42.6899 43.8323C42.5952 43.9632 42.4982 44.0899 42.3989 44.2102C42.0145 44.6982 41.6168 45.1094 41.2505 45.4592H41.2495C40.8796 45.8081 40.5343 46.0899 40.2437 46.3137C39.9616 46.5296 39.73 46.6912 39.5659 46.801Z" fill="#B0BBAA" stroke="black" stroke-width="0.133333"/>
<path d="M40.2002 42.5898C40.2903 42.55 40.3975 42.4979 40.5156 42.4248H40.5166C40.7051 42.3093 40.9228 42.1406 41.127 41.8994L41.1279 41.8984C41.2828 41.7198 41.4275 41.4975 41.5439 41.2393L41.6504 40.9688C41.6782 40.8682 41.7085 40.7776 41.7305 40.6787C41.7482 40.576 41.7667 40.4714 41.7852 40.3652L41.8047 40.0439L41.8086 39.9609L41.8096 39.9404V39.917L41.8076 39.877V39.876C41.805 39.8215 41.8025 39.7699 41.7979 39.7178V39.7168C41.7937 39.6627 41.7894 39.6084 41.7852 39.5537C41.7793 39.4999 41.769 39.4456 41.7598 39.3838C41.7383 39.2637 41.7206 39.1496 41.6846 39.041L41.6836 39.0391C41.6495 38.9219 41.618 38.8104 41.5674 38.7041L41.5664 38.7021L41.4932 38.5332C41.4668 38.4809 41.4368 38.4343 41.4043 38.377L41.4033 38.375C41.2896 38.1642 41.1236 37.9803 40.9473 37.8037C40.7533 37.646 40.5604 37.4956 40.3369 37.4023L40.333 37.4004C39.8843 37.1856 39.3782 37.0995 38.8711 37.0762C38.7398 37.0735 38.617 37.0646 38.4941 37.0732H38.4922L38.3008 37.0811H38.3018C38.2822 37.0826 38.2641 37.0826 38.251 37.083C38.2372 37.0835 38.2226 37.0849 38.2031 37.0879H38.2012L38.1074 37.0996C38.0448 37.1094 37.9822 37.1156 37.9238 37.123L37.7432 37.1543L37.3652 37.2441H37.3662C36.8821 37.3801 36.4251 37.561 35.9883 37.748H35.9893C35.7726 37.8424 35.5615 37.9413 35.3594 38.043H35.3584C35.1541 38.1402 34.9594 38.245 34.7695 38.3486H34.7686C34.5785 38.4503 34.3959 38.5526 34.2197 38.6523L33.7109 38.9424C33.063 39.3197 32.5227 39.6294 32.1348 39.832V39.833C32.0378 39.8827 31.9505 39.9263 31.875 39.9648L31.874 39.9658C31.8698 39.9679 31.8655 39.9697 31.8613 39.9717C31.8652 39.9707 31.8691 39.9698 31.873 39.9688L32.1562 39.8887C32.3663 39.8244 32.6196 39.7362 32.9023 39.6201H32.9033C33.1881 39.5081 33.5022 39.366 33.8447 39.209V39.208C34.1854 39.047 34.5518 38.8711 34.9346 38.6797C35.3172 38.4906 35.7213 38.2911 36.1387 38.085L36.1396 38.084C36.5575 37.8856 36.9942 37.6847 37.4502 37.5264L37.4521 37.5254C37.6726 37.4546 37.8968 37.3791 38.1504 37.3252C38.3796 37.2692 38.6306 37.2292 38.873 37.208C39.3624 37.1624 39.8813 37.1991 40.3301 37.4141L40.3291 37.415C40.3808 37.4396 40.4389 37.4645 40.4932 37.4941L40.4619 37.5527L40.4941 37.4941L40.499 37.4971L40.6455 37.5977C40.702 37.6305 40.7508 37.6706 40.7939 37.7109C40.8406 37.7546 40.8762 37.7928 40.9189 37.8301L40.9199 37.8291L40.9258 37.8369C41.0801 38.0164 41.2159 38.2137 41.2969 38.4355C41.3143 38.4815 41.341 38.5406 41.3584 38.5947L41.3594 38.5986L41.4014 38.7598L41.4004 38.7607C41.4348 38.8698 41.448 38.9886 41.4648 39.0869C41.488 39.1975 41.4903 39.3106 41.498 39.4062C41.5017 39.4524 41.5098 39.5089 41.5117 39.5635V39.7295C41.5185 40.0942 41.5003 40.4412 41.4248 40.7559L41.3887 40.8887C41.2951 41.2371 41.1454 41.5353 40.9824 41.7812H40.9814C40.8574 41.965 40.7262 42.1206 40.5996 42.248L40.4746 42.3662C40.3733 42.4572 40.2797 42.5306 40.2002 42.5898Z" fill="#B0BBAA" stroke="black" stroke-width="0.133333"/>
<path d="M28.6758 49.5947C29.4208 49.5425 30.1989 49.4012 30.9854 49.1924C31.1816 49.1398 31.3779 49.0814 31.5742 49.0176L32.1621 48.8115C32.5526 48.66 32.9401 48.4918 33.3057 48.2705L33.3076 48.2695C33.3987 48.2173 33.4824 48.1562 33.5762 48.0938C33.665 48.0222 33.7465 47.9655 33.8213 47.8916L33.8252 47.8887C33.8653 47.8549 33.9025 47.8175 33.9395 47.7783L34.0508 47.6543C34.1202 47.5642 34.1803 47.4887 34.2393 47.3955L34.2402 47.3936C34.4566 47.0771 34.6215 46.7248 34.7246 46.3496L34.7646 46.1875C34.8591 45.7542 34.8688 45.2864 34.7158 44.8506C34.6381 44.6344 34.5244 44.4286 34.376 44.2529C34.2256 44.0778 34.045 43.9312 33.8516 43.8105C33.4585 43.5828 33.0229 43.4714 32.5967 43.4209C32.1681 43.3713 31.7454 43.3834 31.334 43.4209H31.333C30.9211 43.4534 30.5269 43.5337 30.1367 43.6182H30.1377C29.7571 43.7076 29.3909 43.7891 29.0312 43.8906H29.0293C28.3066 44.0757 27.6352 44.2861 27.0244 44.5117H27.0254C26.416 44.7397 25.8707 44.99 25.3994 45.2314C25.1429 45.3636 24.9108 45.4984 24.7041 45.6309C24.9218 45.5179 25.166 45.4088 25.4336 45.3076C25.9234 45.1188 26.4881 44.944 27.1074 44.7725H27.1084C27.727 44.6094 28.3998 44.4206 29.1152 44.2529V44.252C29.2932 44.2075 29.4754 44.1654 29.6621 44.125V44.124C29.8471 44.0803 30.0344 44.0359 30.2236 43.9912H30.2246C30.5944 43.91 30.9797 43.8328 31.3711 43.7871C31.7619 43.7402 32.1643 43.7173 32.5635 43.752C32.9629 43.7859 33.359 43.8843 33.7109 44.0664L33.7129 44.0674C33.8847 44.1638 34.0459 44.2813 34.1836 44.4258V44.4268C34.3202 44.573 34.4279 44.745 34.5059 44.9316C34.6709 45.3066 34.6972 45.7443 34.6377 46.1631H34.6387L34.6377 46.1641L34.5723 46.4756C34.3865 47.1987 33.9669 47.8903 33.2988 48.2588H33.2998C32.5699 48.6967 31.7462 48.9248 30.958 49.0684C30.5626 49.1403 30.1708 49.1945 29.7861 49.2305H29.7852C29.4012 49.2638 29.0258 49.2891 28.6602 49.3037C27.929 49.334 27.2366 49.3209 26.6055 49.2588H26.6045C26.2916 49.223 25.9878 49.1821 25.707 49.1094H25.7051C25.6406 49.0909 25.5676 49.0725 25.502 49.0518L25.499 49.0508C25.436 49.0282 25.3736 49.0059 25.3125 48.9844L25.3076 48.9824C25.2459 48.9542 25.1841 48.926 25.124 48.8984H25.123L25.1191 48.8965C25.0606 48.8644 25.0031 48.8321 24.9463 48.8008C24.7268 48.6799 24.5268 48.5514 24.3506 48.418C24.4286 48.4895 24.5119 48.5614 24.6006 48.6328L24.9082 48.8643L25.0762 48.9814C25.1346 49.016 25.1939 49.0513 25.2539 49.0869L25.2529 49.0879C25.3187 49.1197 25.3855 49.1518 25.4531 49.1846C25.521 49.214 25.5866 49.2377 25.6602 49.2676C25.9434 49.3703 26.2485 49.4532 26.5703 49.5068H26.5713C27.0561 49.5942 27.5777 49.6268 28.123 49.6172L28.6758 49.5947Z" fill="#B0BBAA" stroke="black" stroke-width="0.133333"/>
<mask id="path-7-inside-2_190_94" fill="white">
<path d="M15.9574 34.6687C15.96 34.654 15.9721 34.5869 15.9933 34.4693C16.0165 34.3348 16.0678 34.1419 16.1307 33.8881C16.2631 33.3834 16.4803 32.6506 16.7587 31.7183C17.0457 30.7889 17.3808 29.6554 17.8046 28.3675C18.2272 27.0792 18.7075 25.6255 19.3012 24.0623C19.4529 23.6724 19.6053 23.2743 19.7714 22.8705C19.9421 22.4682 20.1127 22.0538 20.2997 21.6479C20.3456 21.5457 20.3919 21.4428 20.4381 21.3397L20.4729 21.2621L20.4924 21.2197L20.5117 21.1808L20.5896 21.0259C20.6939 20.8191 20.799 20.6106 20.905 20.4005C21.1352 19.9926 21.3562 19.5691 21.6109 19.1612C22.5964 17.506 23.7873 15.8647 25.1264 14.2585C25.8033 13.4613 26.5056 12.6623 27.2711 11.9027C28.0365 11.143 28.8336 10.3963 29.7431 9.74619L30.0974 9.50842C30.2155 9.42841 30.3337 9.34776 30.4536 9.28775L30.8121 9.09111L30.9019 9.04192C30.9061 9.03917 30.941 9.02159 30.9396 9.02352L30.9675 9.01175L31.0232 8.98852C31.0956 8.95465 31.1776 8.93577 31.2561 8.91254C31.4193 8.87786 31.5917 8.86786 31.7613 8.89415C31.9297 8.92432 32.088 8.98658 32.2303 9.06772C32.5083 9.23903 32.7214 9.46938 32.8901 9.71312C33.224 10.2062 33.4318 10.7452 33.5969 11.2877C33.7605 11.8316 33.876 12.3846 33.9632 12.94C34.1391 14.0506 34.2058 15.1712 34.2038 16.2839C34.2072 17.3969 34.1435 18.5043 34.0231 19.5961C33.7777 21.778 33.3172 23.9066 32.5763 25.8752C32.4821 26.1203 32.3842 26.3632 32.2801 26.6047C32.2276 26.7229 32.1751 26.8407 32.1228 26.9583C32.0682 27.0797 32.0075 27.1923 31.9502 27.3094C31.8345 27.5417 31.7211 27.7742 31.5878 27.9939C31.4595 28.2165 31.3354 28.4407 31.1918 28.6506C31.0522 28.863 30.9185 29.0785 30.7655 29.2781C30.6157 29.4799 30.4743 29.6873 30.3119 29.8752C29.9998 30.262 29.67 30.626 29.3319 30.9712C27.9682 32.3455 26.449 33.3868 24.9702 34.1627C23.4901 34.9429 22.0542 35.4786 20.7681 35.8818C19.4786 36.2807 18.329 36.5284 17.3717 36.6691C17.1306 36.6988 16.9025 36.733 16.6784 36.7014C16.4557 36.6722 16.2595 36.5554 16.1361 36.4012C16.0139 36.2449 15.9541 36.0698 15.9198 35.9105C15.8847 35.7504 15.8762 35.6022 15.8737 35.4704C15.8714 35.2063 15.8986 35.006 15.919 34.8719C15.9404 34.7381 15.9573 34.669 15.9573 34.669L15.9574 34.6687ZM16.0195 34.6835C16.0195 34.6835 16.0037 34.7498 15.9839 34.882C15.9649 35.0139 15.9399 35.2115 15.9443 35.4691C15.9479 35.5975 15.9574 35.7416 15.9924 35.8943C16.0262 36.0463 16.0849 36.21 16.1972 36.3507C16.3099 36.4902 16.4857 36.5893 16.6906 36.6096C16.8937 36.633 17.1215 36.5939 17.3553 36.5572C17.5914 36.5192 17.8387 36.4663 18.0973 36.4094C18.355 36.3465 18.6234 36.2766 18.9017 36.1978C19.4579 36.0392 20.0536 35.8479 20.6803 35.6167C21.9338 35.1562 23.3091 34.5306 24.7271 33.7133C26.1412 32.8938 27.6067 31.88 28.9389 30.5684C29.2729 30.2424 29.599 29.8983 29.9081 29.5321C30.0697 29.3547 30.2152 29.1624 30.3674 28.9732C30.5231 28.7865 30.66 28.5841 30.8031 28.3844C30.9506 28.1873 31.0787 27.976 31.2116 27.7658C31.3493 27.5583 31.4678 27.3381 31.5889 27.1178C31.6485 27.0076 31.7139 26.8974 31.7691 26.7866L31.9401 26.4419C32.0499 26.214 32.1558 25.9804 32.2583 25.7436C33.0782 23.8493 33.5934 21.7412 33.8299 19.5745C34.0634 17.4086 34.0291 15.1651 33.6192 13.0022C33.5131 12.4631 33.3796 11.9303 33.2035 11.4175C33.0275 10.9068 32.8063 10.4085 32.5035 9.99719C32.3545 9.79136 32.1759 9.61859 31.9834 9.50616C31.8855 9.45486 31.7857 9.41986 31.6845 9.40357C31.5829 9.39147 31.4803 9.40034 31.3771 9.42406C31.3258 9.44261 31.2738 9.45309 31.2232 9.47971L31.1577 9.50907L31.0693 9.56052L30.7157 9.76652C30.5933 9.83201 30.489 9.90895 30.3842 9.98493L30.0671 10.2106C29.2223 10.8462 28.4422 11.5851 27.7075 12.3407C26.9686 13.0955 26.2881 13.893 25.6336 14.6873C25.4723 14.8881 25.312 15.0881 25.1523 15.2873C24.993 15.4869 24.8419 15.6916 24.6859 15.8906C24.3722 16.2878 24.0825 16.6972 23.7883 17.0963C23.5038 17.5021 23.2201 17.9027 22.954 18.3071C22.8203 18.5089 22.6875 18.7095 22.5554 18.9089C22.4247 19.1091 22.3035 19.3128 22.1782 19.5125C21.9233 19.9098 21.7045 20.3186 21.4746 20.714C21.3696 20.9161 21.2654 21.1168 21.162 21.316L21.0846 21.465L21.065 21.502L21.0481 21.5363L21.0113 21.6128C20.9621 21.7147 20.9133 21.8162 20.8646 21.9172C20.4736 22.7242 20.1347 23.5067 19.7983 24.2689C19.141 25.7928 18.5616 27.2041 18.0763 28.466C17.5935 29.7289 17.1777 30.8334 16.8734 31.7559C16.5605 32.6754 16.3394 33.4063 16.2015 33.9076C16.1361 34.1586 16.0824 34.3516 16.0584 34.4821C16.0331 34.6127 16.0201 34.6802 16.0201 34.6802L16.0195 34.6835Z"/>
</mask>
<path d="M15.9574 34.6687C15.96 34.654 15.9721 34.5869 15.9933 34.4693C16.0165 34.3348 16.0678 34.1419 16.1307 33.8881C16.2631 33.3834 16.4803 32.6506 16.7587 31.7183C17.0457 30.7889 17.3808 29.6554 17.8046 28.3675C18.2272 27.0792 18.7075 25.6255 19.3012 24.0623C19.4529 23.6724 19.6053 23.2743 19.7714 22.8705C19.9421 22.4682 20.1127 22.0538 20.2997 21.6479C20.3456 21.5457 20.3919 21.4428 20.4381 21.3397L20.4729 21.2621L20.4924 21.2197L20.5117 21.1808L20.5896 21.0259C20.6939 20.8191 20.799 20.6106 20.905 20.4005C21.1352 19.9926 21.3562 19.5691 21.6109 19.1612C22.5964 17.506 23.7873 15.8647 25.1264 14.2585C25.8033 13.4613 26.5056 12.6623 27.2711 11.9027C28.0365 11.143 28.8336 10.3963 29.7431 9.74619L30.0974 9.50842C30.2155 9.42841 30.3337 9.34776 30.4536 9.28775L30.8121 9.09111L30.9019 9.04192C30.9061 9.03917 30.941 9.02159 30.9396 9.02352L30.9675 9.01175L31.0232 8.98852C31.0956 8.95465 31.1776 8.93577 31.2561 8.91254C31.4193 8.87786 31.5917 8.86786 31.7613 8.89415C31.9297 8.92432 32.088 8.98658 32.2303 9.06772C32.5083 9.23903 32.7214 9.46938 32.8901 9.71312C33.224 10.2062 33.4318 10.7452 33.5969 11.2877C33.7605 11.8316 33.876 12.3846 33.9632 12.94C34.1391 14.0506 34.2058 15.1712 34.2038 16.2839C34.2072 17.3969 34.1435 18.5043 34.0231 19.5961C33.7777 21.778 33.3172 23.9066 32.5763 25.8752C32.4821 26.1203 32.3842 26.3632 32.2801 26.6047C32.2276 26.7229 32.1751 26.8407 32.1228 26.9583C32.0682 27.0797 32.0075 27.1923 31.9502 27.3094C31.8345 27.5417 31.7211 27.7742 31.5878 27.9939C31.4595 28.2165 31.3354 28.4407 31.1918 28.6506C31.0522 28.863 30.9185 29.0785 30.7655 29.2781C30.6157 29.4799 30.4743 29.6873 30.3119 29.8752C29.9998 30.262 29.67 30.626 29.3319 30.9712C27.9682 32.3455 26.449 33.3868 24.9702 34.1627C23.4901 34.9429 22.0542 35.4786 20.7681 35.8818C19.4786 36.2807 18.329 36.5284 17.3717 36.6691C17.1306 36.6988 16.9025 36.733 16.6784 36.7014C16.4557 36.6722 16.2595 36.5554 16.1361 36.4012C16.0139 36.2449 15.9541 36.0698 15.9198 35.9105C15.8847 35.7504 15.8762 35.6022 15.8737 35.4704C15.8714 35.2063 15.8986 35.006 15.919 34.8719C15.9404 34.7381 15.9573 34.669 15.9573 34.669L15.9574 34.6687ZM16.0195 34.6835C16.0195 34.6835 16.0037 34.7498 15.9839 34.882C15.9649 35.0139 15.9399 35.2115 15.9443 35.4691C15.9479 35.5975 15.9574 35.7416 15.9924 35.8943C16.0262 36.0463 16.0849 36.21 16.1972 36.3507C16.3099 36.4902 16.4857 36.5893 16.6906 36.6096C16.8937 36.633 17.1215 36.5939 17.3553 36.5572C17.5914 36.5192 17.8387 36.4663 18.0973 36.4094C18.355 36.3465 18.6234 36.2766 18.9017 36.1978C19.4579 36.0392 20.0536 35.8479 20.6803 35.6167C21.9338 35.1562 23.3091 34.5306 24.7271 33.7133C26.1412 32.8938 27.6067 31.88 28.9389 30.5684C29.2729 30.2424 29.599 29.8983 29.9081 29.5321C30.0697 29.3547 30.2152 29.1624 30.3674 28.9732C30.5231 28.7865 30.66 28.5841 30.8031 28.3844C30.9506 28.1873 31.0787 27.976 31.2116 27.7658C31.3493 27.5583 31.4678 27.3381 31.5889 27.1178C31.6485 27.0076 31.7139 26.8974 31.7691 26.7866L31.9401 26.4419C32.0499 26.214 32.1558 25.9804 32.2583 25.7436C33.0782 23.8493 33.5934 21.7412 33.8299 19.5745C34.0634 17.4086 34.0291 15.1651 33.6192 13.0022C33.5131 12.4631 33.3796 11.9303 33.2035 11.4175C33.0275 10.9068 32.8063 10.4085 32.5035 9.99719C32.3545 9.79136 32.1759 9.61859 31.9834 9.50616C31.8855 9.45486 31.7857 9.41986 31.6845 9.40357C31.5829 9.39147 31.4803 9.40034 31.3771 9.42406C31.3258 9.44261 31.2738 9.45309 31.2232 9.47971L31.1577 9.50907L31.0693 9.56052L30.7157 9.76652C30.5933 9.83201 30.489 9.90895 30.3842 9.98493L30.0671 10.2106C29.2223 10.8462 28.4422 11.5851 27.7075 12.3407C26.9686 13.0955 26.2881 13.893 25.6336 14.6873C25.4723 14.8881 25.312 15.0881 25.1523 15.2873C24.993 15.4869 24.8419 15.6916 24.6859 15.8906C24.3722 16.2878 24.0825 16.6972 23.7883 17.0963C23.5038 17.5021 23.2201 17.9027 22.954 18.3071C22.8203 18.5089 22.6875 18.7095 22.5554 18.9089C22.4247 19.1091 22.3035 19.3128 22.1782 19.5125C21.9233 19.9098 21.7045 20.3186 21.4746 20.714C21.3696 20.9161 21.2654 21.1168 21.162 21.316L21.0846 21.465L21.065 21.502L21.0481 21.5363L21.0113 21.6128C20.9621 21.7147 20.9133 21.8162 20.8646 21.9172C20.4736 22.7242 20.1347 23.5067 19.7983 24.2689C19.141 25.7928 18.5616 27.2041 18.0763 28.466C17.5935 29.7289 17.1777 30.8334 16.8734 31.7559C16.5605 32.6754 16.3394 33.4063 16.2015 33.9076C16.1361 34.1586 16.0824 34.3516 16.0584 34.4821C16.0331 34.6127 16.0201 34.6802 16.0201 34.6802L16.0195 34.6835Z" fill="#B0BBAA" stroke="black" stroke-width="0.266667" mask="url(#path-7-inside-2_190_94)"/>
<path d="M10.8965 32.0457C10.8928 31.7309 10.8886 31.3822 10.8838 31.0027V31.0017C10.8868 30.622 10.8899 30.211 10.8936 29.7722C10.896 29.3328 10.9041 28.8675 10.9014 28.3767V28.3748L10.9414 26.8289C10.95 26.4258 10.9555 26.0084 10.9736 25.5798L10.9961 25.1472C11.0125 24.8582 11.0252 24.5636 11.0381 24.2644C11.051 23.9654 11.0646 23.6613 11.083 23.3533V23.3523C11.1328 22.7384 11.1804 22.1076 11.2217 21.4626V21.4607C11.2852 20.8179 11.3501 20.1609 11.416 19.4929V19.491C11.5004 18.826 11.5882 18.149 11.6895 17.4656V17.4636C11.7491 17.1239 11.8098 16.7818 11.8701 16.4382C11.9006 16.2665 11.9315 16.0941 11.9619 15.9216V15.9197C11.9989 15.7486 12.0361 15.5768 12.0732 15.405C12.1473 15.061 12.2214 14.7146 12.2959 14.3679L12.2969 14.366C12.3828 14.0226 12.4685 13.6779 12.5547 13.3328C12.6337 12.9824 12.7394 12.6377 12.8359 12.2957C12.8852 12.1244 12.9338 11.9517 12.9844 11.7791L13.1465 11.2634L13.4893 10.2429C13.6128 9.90625 13.736 9.56966 13.8594 9.23413L13.8604 9.23218C13.9953 8.9009 14.1303 8.57045 14.2646 8.24097C14.3997 7.91073 14.5514 7.58529 14.6914 7.26343C14.8318 6.93774 14.9858 6.61843 15.1328 6.30151C15.2072 6.14228 15.2805 5.98332 15.3545 5.82495L15.3555 5.82397C15.4327 5.66831 15.5092 5.51296 15.5859 5.35815H15.5869C15.8977 4.73802 16.2427 4.14577 16.6094 3.58667C16.9768 3.02837 17.373 2.5025 17.8105 2.0437C18.2462 1.58524 18.7215 1.18912 19.2334 0.913818C19.7453 0.638984 20.2947 0.498515 20.835 0.512451L20.8359 0.511475C21.3757 0.518719 21.8955 0.668503 22.3662 0.877686L22.3672 0.876709C22.843 1.08242 23.2695 1.34134 23.665 1.62183H23.666C24.0532 1.90063 24.4146 2.18058 24.7217 2.4812C24.7977 2.55561 24.8728 2.62823 24.9463 2.69995L24.9453 2.70093C24.9846 2.73868 25.0205 2.7778 25.0537 2.81616C25.0876 2.85534 25.1186 2.89228 25.1514 2.92749L25.1523 2.92847C25.2155 3.00045 25.2849 3.07538 25.3467 3.14917H25.3477L25.3486 3.1521C25.4068 3.22813 25.4639 3.30252 25.5195 3.37573C25.7482 3.6722 25.9194 3.97046 26.0684 4.23999L26.0693 4.24194C26.3414 4.77101 26.4769 5.23237 26.5479 5.5603C26.5183 5.26968 26.4488 4.86888 26.2773 4.39819L26.1934 4.1814C25.9476 3.5947 25.5395 2.91782 24.9277 2.27026H24.9268C24.6237 1.94455 24.27 1.62779 23.873 1.32593C23.5789 1.10229 23.2546 0.879984 22.8994 0.684326L22.5332 0.497803C22.0319 0.265349 21.462 0.0881218 20.8467 0.0690918H20.8457C20.2337 0.0421351 19.5912 0.217604 19.0293 0.533936C18.7508 0.697477 18.4859 0.887697 18.2412 1.10229H18.2422C18.0003 1.32335 17.7695 1.55921 17.5615 1.81421L17.5605 1.81519C17.1353 2.32198 16.7667 2.88343 16.4316 3.47339C16.0949 4.06291 15.7957 4.68318 15.501 5.31421H15.502C15.2165 5.94797 14.9269 6.58943 14.6357 7.23608C14.056 8.53041 13.4505 9.83781 12.9424 11.1902C12.4324 12.5412 11.9641 13.9159 11.6533 15.3064L11.6523 15.3083L11.5254 15.8279C11.4905 16.0011 11.4555 16.1739 11.4209 16.3464L11.2148 17.3826C11.156 17.7267 11.1002 18.0693 11.0469 18.4099L10.8926 19.4265C10.8525 19.7632 10.8138 20.0973 10.7773 20.4285L10.6758 21.4148C10.6516 21.7399 10.6289 22.0616 10.6084 22.3796L10.5518 23.325C10.5128 24.5688 10.4753 25.7431 10.5049 26.825C10.516 27.3667 10.5269 27.8858 10.5371 28.3796C10.5588 28.8728 10.59 29.3395 10.6143 29.78C10.6394 30.219 10.6627 30.6296 10.6846 31.0095C10.7137 31.3887 10.7442 31.7365 10.7754 32.0505V32.0515C10.8287 32.6045 10.8715 33.0533 10.9033 33.3826L10.8965 32.0457Z" fill="#B0BBAA" stroke="black" stroke-width="0.133333"/>
<path d="M15.2148 24.4473C15.1969 24.2438 15.182 23.9646 15.165 23.625V23.6221C15.1628 23.4303 15.1559 23.219 15.1484 22.9883C15.1427 22.8726 15.1427 22.7495 15.1436 22.623V21.8213C15.1493 21.3939 15.1707 20.9299 15.1826 20.4404V20.4375L15.2471 19.4199C15.2571 19.2445 15.2671 19.0659 15.2773 18.8848V18.8818C15.2954 18.6985 15.3135 18.5119 15.332 18.3232C15.3707 17.946 15.4068 17.5586 15.4365 17.1621L15.4375 17.1582C15.4861 16.7823 15.5405 16.3715 15.583 15.9678V15.9668C15.6066 15.7658 15.6257 15.5565 15.6543 15.3496L15.6553 15.3477C15.6875 15.1418 15.7194 14.9343 15.752 14.7256V14.7246C15.8208 14.312 15.8731 13.881 15.9609 13.457C16.0004 13.2451 16.0404 13.0318 16.0801 12.8184L16.1982 12.1719C16.2853 11.7465 16.3638 11.3099 16.46 10.8809V10.8799C16.6602 10.0288 16.8565 9.15122 17.1826 8.35645V8.35449C17.5363 7.56445 17.9859 6.82702 18.5098 6.2002C18.7712 5.88656 19.053 5.60226 19.3457 5.35645C19.5649 5.17257 19.7932 5.00924 20.0283 4.88281L20.2656 4.76855C20.3448 4.73269 20.4245 4.7034 20.5039 4.67871L20.7432 4.61719C20.8234 4.60127 20.9101 4.59634 20.9795 4.58789V4.58691H21.0908C21.1168 4.58644 21.1575 4.58177 21.21 4.58887L21.2109 4.58789C21.5419 4.61312 21.8505 4.70711 22.1279 4.83398L22.127 4.83496C22.6899 5.08518 23.1192 5.49607 23.4482 5.89355H23.4492C23.7767 6.29707 24.0126 6.69779 24.1885 7.03613C24.3566 7.3611 24.471 7.63221 24.5479 7.82324C24.5066 7.6206 24.4392 7.33245 24.3135 6.98047C24.182 6.61328 23.9939 6.17167 23.6816 5.71484C23.4127 5.31682 23.0399 4.89957 22.5303 4.58691L22.3037 4.45996C21.9899 4.30551 21.6366 4.18922 21.2637 4.14941C20.8556 4.10559 20.4582 4.20232 20.0889 4.375C19.9974 4.41814 19.9094 4.46771 19.8232 4.52148L19.5693 4.69336C19.4093 4.81973 19.2553 4.95457 19.1143 5.10059C18.8998 5.32139 18.704 5.56172 18.5225 5.81543L18.3457 6.07324C17.8869 6.77529 17.4895 7.53449 17.127 8.32812H17.1279L17.0605 8.47852L17.0273 8.55469H17.0283L17 8.63086L16.8906 8.94043V8.94141L16.6748 9.56348L16.6738 9.56543L16.458 10.1904L16.251 10.8232L15.8623 12.0938C15.8022 12.3053 15.7471 12.5178 15.6943 12.7305L15.5391 13.3711L15.4629 13.6895L15.4004 14.0068C15.3591 14.2198 15.3182 14.4319 15.2773 14.6426L15.1562 15.2705C15.1196 15.4782 15.0928 15.6841 15.0605 15.8926C15.0283 16.1001 14.9993 16.3025 14.9717 16.5049L14.8906 17.1182C14.8544 17.5132 14.8258 17.9008 14.8018 18.2783C14.7888 18.4677 14.7761 18.6549 14.7637 18.8389L14.7539 19.3877C14.7514 19.7503 14.7447 20.0978 14.7461 20.4316C14.7788 21.1036 14.7915 21.7109 14.8584 22.248V22.251C14.903 22.789 14.9828 23.255 15.0449 23.6396L15.0439 23.6406C15.1125 23.9813 15.1662 24.2517 15.2148 24.4473Z" fill="#B0BBAA" stroke="black" stroke-width="0.133333"/>
<path d="M10.9297 34.2775C11.0206 34.2517 11.0955 34.1687 11.0801 34.0568C10.7988 32.0105 10.3614 29.9682 9.78711 27.9865C9.38498 26.5985 8.90276 25.1976 8.15625 23.965C7.79237 23.3642 7.26237 22.7348 6.6377 22.3009C6.0132 21.8672 5.29967 21.6331 4.56348 21.8077C4.03497 21.9333 3.6273 22.2937 3.33594 22.755C3.04444 23.2166 2.87201 23.7748 2.81543 24.2853C2.67251 25.5747 2.90841 27.1487 3.76172 28.1476C4.02736 28.4584 4.46042 28.6917 4.87402 28.7306C5.08 28.7499 5.27843 28.7205 5.44824 28.632C5.61726 28.5438 5.76323 28.3949 5.86133 28.1661C6.05985 27.7033 5.99794 27.1784 5.77539 26.715C5.55271 26.2514 5.17253 25.8564 4.74609 25.6554C4.64627 25.6083 4.54985 25.6569 4.50195 25.7394C4.47839 25.78 4.47066 25.8234 4.47852 25.8595C4.48593 25.8933 4.50888 25.9285 4.56152 25.9532C5.24017 26.2734 5.66978 26.987 5.61719 27.7472C5.60295 27.9532 5.53568 28.1072 5.42773 28.212C5.3201 28.3164 5.17902 28.3653 5.03125 28.3751C4.73837 28.3945 4.40161 28.2616 4.1748 28.0685C3.82759 27.7728 3.59972 27.3621 3.44727 26.924C3.2948 26.4857 3.21655 26.0156 3.1709 25.5958C3.07281 24.6938 3.12966 23.7611 3.61816 22.9601C3.89066 22.5133 4.22869 22.2625 4.59961 22.1632C4.9689 22.0644 5.36204 22.1177 5.74219 22.2628C6.50102 22.5526 7.22683 23.2149 7.65234 23.8253C8.47918 25.0118 8.95984 26.4435 9.37305 27.8077C9.99958 29.8764 10.4562 32.0241 10.751 34.1671C10.759 34.2253 10.785 34.2547 10.8125 34.2697C10.8425 34.2859 10.8847 34.2901 10.9297 34.2775Z" fill="#B0BBAA" stroke="black" stroke-width="0.133333"/>
<path d="M2.8623 37.8999C3.77917 38.1415 4.75512 37.8225 5.10938 36.9009C5.42992 36.0664 5.20521 35.0847 4.44434 34.603C4.23113 34.4682 3.76597 34.3269 3.34375 34.3247C3.13319 34.3236 2.94108 34.3576 2.79883 34.437C2.66024 34.5144 2.56648 34.6366 2.54688 34.8247C2.54081 34.8836 2.55882 34.9201 2.58301 34.9429C2.60901 34.9673 2.64894 34.9821 2.69531 34.9819C2.78907 34.9816 2.88068 34.9227 2.89258 34.811L3.02539 34.8247L3.02344 34.8218C3.02039 34.8114 3.01062 34.7939 2.98926 34.7866C2.98126 34.7839 2.97458 34.7835 2.9707 34.7837C2.96692 34.7839 2.96402 34.7846 2.96387 34.7847C2.96387 34.7847 2.96446 34.7843 2.96582 34.7837C2.96757 34.783 2.9706 34.7823 2.97363 34.7808C2.98412 34.7755 3.00343 34.7637 3.02734 34.7515L3.10938 34.7183C3.25018 34.6791 3.39716 34.6812 3.53027 34.686C3.9199 34.6996 4.29464 34.8668 4.56641 35.146C4.79436 35.3805 4.89675 35.7041 4.90918 36.0298C4.92159 36.3554 4.84488 36.6902 4.70508 36.9546C4.51046 37.3223 4.23079 37.5295 3.90918 37.6147C3.59018 37.6993 3.23531 37.6624 2.8877 37.5552C2.19344 37.3409 1.50517 36.8383 1.14062 36.395C0.398763 35.4927 0.119628 34.1416 0.835938 33.1284C1.2889 32.4876 2.08473 32.1808 2.79102 32.0093C3.72946 31.7815 4.71901 31.8022 5.65332 32.0249C7.23892 32.4028 8.87729 33.5363 9.78711 34.8208C9.85137 34.9114 9.95877 34.9163 10.04 34.8687C10.0802 34.8451 10.1075 34.8112 10.1182 34.7759C10.1281 34.7428 10.1259 34.701 10.0918 34.6528C8.77347 32.7916 6.49246 31.5313 4.23535 31.4985C3.52589 31.4883 2.73444 31.5919 2.03027 31.8657C1.32636 32.1395 0.713356 32.5817 0.353516 33.2485C-0.182477 34.2421 0.0904672 35.4761 0.703125 36.3823C1.21896 37.145 1.97994 37.6673 2.8623 37.8999Z" fill="#B0BBAA" stroke="black" stroke-width="0.133333"/>
<path d="M4.6543 26.3126C4.93066 26.3126 5.15625 26.0852 5.15625 25.8038C5.15601 25.5227 4.93054 25.296 4.6543 25.296C4.37808 25.296 4.15258 25.5228 4.15234 25.8038C4.15234 26.0851 4.37795 26.3126 4.6543 26.3126Z" fill="#B0BBAA" stroke="black" stroke-width="0.133333"/>
<path d="M5.22275 25.8043C5.22275 26.1217 4.96821 26.379 4.65434 26.379C4.34047 26.379 4.08594 26.1217 4.08594 25.8043C4.08594 25.4868 4.34047 25.2297 4.65434 25.2297C4.96821 25.2297 5.22275 25.4868 5.22275 25.8043Z" fill="#B0BBAA" stroke="black" stroke-width="1.33333" stroke-miterlimit="10"/>
<path d="M2.73877 35.568C3.01513 35.568 3.24072 35.3405 3.24072 35.0592C3.24048 34.7781 3.01501 34.5514 2.73877 34.5514C2.46255 34.5514 2.23706 34.7781 2.23682 35.0592C2.23682 35.3405 2.46243 35.568 2.73877 35.568Z" fill="#B0BBAA" stroke="black" stroke-width="0.133333"/>
<path d="M3.30722 35.0597C3.30722 35.3771 3.05269 35.6344 2.73882 35.6344C2.42494 35.6344 2.17041 35.3771 2.17041 35.0597C2.17041 34.7422 2.42494 34.4851 2.73882 34.4851C3.05269 34.4851 3.30722 34.7422 3.30722 35.0597Z" fill="#B0BBAA" stroke="black" stroke-width="1.33333" stroke-miterlimit="10"/>
<path d="M65.124 54.4663C66.9063 53.8145 68.6528 53.034 70.2812 52.0542C71.5438 51.2944 72.7674 50.3898 73.7061 49.2456C74.1709 48.6789 74.6656 47.8426 74.8086 47.0552C74.8799 46.6623 74.8622 46.2868 74.7158 45.9634C74.5701 45.6414 74.2934 45.3629 73.8291 45.1704C73.0134 44.8323 72.0694 44.8691 71.1426 45.0952C70.2165 45.3212 69.3133 45.7349 68.584 46.1411C66.4614 47.3234 64.7361 49.2746 64.083 51.6538C63.8585 52.4714 63.7676 53.3565 63.8027 54.2495C63.9735 54.192 64.1435 54.1324 64.3135 54.0728C64.2249 51.4719 65.4737 49.131 67.4541 47.5151C68.9368 46.3055 71.056 45.2866 73.0254 45.4917C73.6087 45.5524 74.1803 45.8126 74.333 46.354C74.4467 46.7583 74.3371 47.2122 74.1484 47.6323C73.959 48.0542 73.685 48.4535 73.4531 48.7544C72.5367 49.944 71.2868 50.8452 70.0283 51.6108C68.3695 52.62 66.579 53.3986 64.7627 54.0562C64.6592 54.0936 64.5549 54.1289 64.4512 54.1655C64.4531 54.2064 64.4544 54.2476 64.457 54.2886C64.4655 54.4225 64.4782 54.5566 64.4922 54.6909C64.7032 54.6173 64.9142 54.543 65.124 54.4663ZM36.585 56.1958C41.5287 57.1982 46.5311 57.6664 51.5645 57.3003C55.6782 57.0011 59.7933 56.2423 63.7217 54.9517C63.7023 54.7783 63.6877 54.6046 63.6777 54.4312C59.5813 55.7926 55.2757 56.553 50.9824 56.8286C45.9147 57.1542 40.8671 56.5963 35.9121 55.5347C32.725 54.8519 29.5333 53.9351 26.5771 52.52C25.9496 52.2197 25.3322 51.8921 24.7393 51.5239C24.5911 51.4318 24.4444 51.3362 24.3008 51.2358C24.2851 51.2248 24.241 51.1934 24.2061 51.1675L24.2041 51.1694C24.0769 51.0693 23.9209 51.1057 23.8252 51.2017C23.7778 51.2492 23.7505 51.3069 23.749 51.3608C23.7477 51.412 23.769 51.469 23.835 51.521C24.7126 52.2115 25.7637 52.7105 26.7783 53.1753C29.8947 54.6027 33.2347 55.5164 36.585 56.1958ZM63.8506 54.9087C64.0214 54.852 64.1922 54.7955 64.3623 54.7368C64.3465 54.5898 64.3335 54.4427 64.3242 54.2964C64.3224 54.268 64.3208 54.2397 64.3193 54.2114C64.1493 54.2709 63.9794 54.3308 63.8086 54.3882C63.818 54.5616 63.8317 54.7353 63.8506 54.9087ZM65.9238 59.7515C67.6955 61.6621 70.46 61.8651 72.9111 61.606C76.199 61.2582 79.3579 60.2496 82.5303 59.269C85.7003 58.2892 88.8839 57.3377 92.21 57.1128C95.2828 56.9051 98.8478 57.7449 100.809 60.3706C100.92 60.5196 101.021 60.6746 101.114 60.8325C101.296 60.8026 101.478 60.7758 101.661 60.7515C100.509 58.6983 98.127 57.3829 95.8916 56.8462C92.967 56.1441 89.8079 56.7948 86.9307 57.5083C85.2602 57.9225 83.6101 58.413 81.959 58.9058C80.3084 59.3984 78.6565 59.8934 76.9844 60.3149C74.3219 60.9861 71.2546 61.6787 68.5342 60.8042C65.9731 59.9808 64.6852 57.4109 64.3779 54.8726C64.2082 54.931 64.0376 54.987 63.8672 55.0435C64.0832 56.8014 64.7839 58.5221 65.9238 59.7515ZM102.088 61.3296C102.646 61.2769 103.205 61.2429 103.76 61.2036C105.918 61.0513 108.108 60.9771 110.218 60.5044C111.697 60.1726 113.065 59.5293 113.99 58.2964C114.041 58.2286 114.048 58.1681 114.033 58.1187C114.018 58.0667 113.978 58.0176 113.92 57.9839C113.803 57.9159 113.643 57.9214 113.546 58.0513C112.608 59.3006 111.119 59.807 109.674 60.0972C107.532 60.5273 105.311 60.5799 103.148 60.7358C102.717 60.767 102.291 60.8071 101.87 60.8589C101.949 61.012 102.022 61.1686 102.088 61.3296ZM101.409 61.4048C101.589 61.3805 101.768 61.3596 101.948 61.3413C101.882 61.1826 101.808 61.0284 101.729 60.8774C101.547 60.9011 101.366 60.9266 101.187 60.9556C101.268 61.1023 101.342 61.2522 101.409 61.4048ZM96.2715 68.5503C97.3547 68.9815 98.5121 68.9407 99.5586 68.4302C101.624 67.4226 102.619 64.8993 102.314 62.6792C102.256 62.2544 102.148 61.8518 102 61.4702C101.82 61.4881 101.641 61.508 101.462 61.5317C102.21 63.3694 101.9 65.5573 100.517 67.0679C99.7967 67.8538 98.8044 68.3576 97.7295 68.3452C97.151 68.3386 96.4384 68.1638 95.8584 67.8218C95.2785 67.4797 94.8211 66.9631 94.7783 66.271C94.7311 65.5106 95.1044 64.8189 95.6182 64.2368C96.1323 63.6545 96.7941 63.1737 97.3418 62.8315C98.2074 62.2905 99.1605 61.9118 100.14 61.6509C100.513 61.5513 100.892 61.4809 101.271 61.4253C101.204 61.2739 101.129 61.1254 101.046 60.98C99.6625 61.2159 98.3412 61.6258 97.0898 62.3872C95.8781 63.1246 94.5975 64.2677 94.3164 65.7153C94.1806 66.4147 94.3679 67.0013 94.7383 67.4741C95.1101 67.9488 95.668 68.3101 96.2715 68.5503Z" fill="#B0BBAA" stroke="black" stroke-width="0.133333"/>
<path d="M11.2294 33.6277C11.2294 33.6277 10.1392 33.4933 9.74029 34.7301C9.34141 35.9668 9.07544 38.4941 10.7774 38.7898C12.4793 39.0854 12.6122 35.8591 12.3729 34.9451C12.1336 34.0311 11.7613 33.7621 11.2294 33.6277Z" fill="#B0BBAA" stroke="black" stroke-width="1.33333" stroke-miterlimit="10"/>
<path d="M10.7886 38.7239C11.1892 38.7935 11.4947 38.6576 11.729 38.3977C11.9664 38.1343 12.1319 37.7421 12.2388 37.3049C12.3453 36.8691 12.3916 36.3943 12.397 35.9719C12.4023 35.5486 12.3658 35.1825 12.3081 34.9622C12.19 34.5112 12.0415 34.2274 11.8628 34.0403C11.6854 33.8546 11.4726 33.759 11.2144 33.6936C11.2135 33.6935 11.2125 33.6927 11.2114 33.6926C11.2043 33.692 11.1934 33.6913 11.1792 33.6907C11.1506 33.6895 11.1087 33.6894 11.0571 33.6926C10.9536 33.699 10.8114 33.7199 10.6577 33.7776C10.3531 33.8919 9.99698 34.1529 9.8042 34.7502C9.60674 35.3625 9.44271 36.2937 9.5376 37.1047C9.58504 37.51 9.69636 37.8806 9.896 38.1663C10.0943 38.45 10.3813 38.6531 10.7886 38.7239Z" fill="#B0BBAA" stroke="black" stroke-width="0.133333"/>
</svg>
