<svg xmlns="http://www.w3.org/2000/svg" width="1040" height="133" fill="none"><g clip-path="url(#a)"><path stroke="#000" stroke-linecap="round" d="M-9 100.584C9.5 80.584 70.5 71.5 114.5 73.5S209 95.5 216 63s-39-33-42-32c-7.409 2.47 14.5 17 16.5 32 2.363 17.724-24.7 24.717-3.5 37.584 14.737 8.146 35.5 19.416 71.5 22.916 50.761 4.935 74.385-26.857 98.884-32.759 29.588-7.128 38.197 4.935 40.471 13.916C402.5 123 419.305 119.872 420 123c.695 3.128-41.909 6.971-47-10-5.091-16.97 14.255-29.387 34.378-29.387 20.122 0 66.997 3.394 100.326 28.172C541.032 136.562 559.5 94.5 578 93.5c18.5-1 22-26 20-27.5s-6 15.063-18.5 16c-12.5.938-13 4-34 19.5-21.07 15.552-50.04 16.394-58.542 20.128-12.955 5.689-14.964 12.898-11.903 15.953 9.357 9.338 26.851-42.397 51.694-46.581C550.5 87 541.5 80.5 553 76c11.5-4.5 7.045-16 6.5-19-.545-3-4-13-3-14s11 11.551 12 21 3.5 25.575-41.751 33.19c-1.229.207 18.751-18.19 15.984-35.639-3.472-21.894-20.855-25.456-29.357-27.492-8.502-2.037-23.466 0-33.669 4.751-8.162 3.802-10.024 11.13-5.781 15.614 5.781 6.11 23.277 2.503 33.669-9.165 13.603-15.274 12.923-27.153 12.923-27.153s1.02-11.201-6.122-12.22c-7.141-1.017-12.871 8.12-15.984 19.687-4.136 15.37-7.142 39.033 6.802 43.446 6.286 1.989 12.268-1.023 13.604-7.468 2.04-9.843-12.495-20.435-20.406-23.759-6.461-2.715-18.024-2.715-22.106-10.183-2.729-4.994-1.941-11.04 2.381-13.916 6.122-4.073 19.501-2.089 27.887 15.953C516.5 51 528 36.834 532.5 39c4.5 2.166 0 7 2 10"/></g><defs><clipPath id="a"><path fill="#fff" d="M0 0h1040v133H0z"/></clipPath></defs></svg>