<svg xmlns="http://www.w3.org/2000/svg" width="950" height="132" fill="none"><g stroke="#000" clip-path="url(#a)"><path d="M0 115c45.962-4.285 77.838-6 124-6 48 0 67.745-3.954 113.93-8.561 46.413-4.63 72.766 7.191 118.852 0C436.5 88 449 88 458.486 89.204 467.972 90.41 469.5 90 471.5 88s3-11.5 2-13.5-1.921-1.394-3.5-3.5-.871-4.856-2.053-6.63c-1.183-1.774-1.774-2.957-1.774-4.73 0-1.183.217-1.775.591-1.775.375 0 1.183 1.183 3.548 1.774 2.365.592 4.139 0 2.365-.591s-2.956-1.183-3.548-1.774c-.591-.591-1.182-1.774.592-2.956 2.2-1.467 7.687-1.774 10.643-.592 2.455.982 4.731 3.548 3.548 5.322-1.183 1.774-1.774 2.365-1.774 4.14 0 1.773.268 4.884-1.183 7.095C479.5 72.5 478 72.5 476.816 74.422c-1.183 1.922-1.182 5.913 0 7.096 1.183 1.182 2.957 0 4.731-1.774s3.822-4.73 4.73-4.73c1.774 0 .591 5.32-2.956 7.686-3.548 2.365-5.913 2.365-7.687 3.548-1.774 1.182-1.183 2.956 6.504 3.548 7.687.591 43.42-2.142 87.513-.592 46.385 1.632 95.73 11.336 141.913 15.966C757.517 109.777 784.816 107 831 107c43 0 86.5 2.67 118.5 12.5"/><path stroke-linecap="round" d="M479.773 56.092c-2.598-1.559-8.279-.592-8.278 0 0 .59 3.074 1.182 5.912 1.182 3.548 0 2.366 2.957 2.957 2.957.591 0 2.365-2.366-.591-4.14ZM550.796 23.96c-5.505-6.117-12.403-2.14-14.986-2.14-2.584 0-5.506-2.753-7.341-.307-1.835 2.447 2.27 5.811 2.753 10.399.612 5.811 1.487 7.378 3.976 10.093 3.084 3.364 8.514 3.271 10.704 3.67 6.729 1.223 8.054 3.364 9.481 2.14 2.141-1.834-1.992-7.129-1.835-9.174.306-3.976 2.753-8.564-2.752-14.68Z"/><path stroke-linecap="round" d="M532.139 26.713c-.611 0-1.835-3.059-1.835-3.67 0-.612 2.447.611 2.753 1.223.306.612-.306 2.447-.918 2.447ZM553.242 45.063c.306-.306-1.223-3.364-1.529-3.364-1.101 0-2.141 1.53-2.141 1.835 0 .918 3.365 1.835 3.67 1.53ZM543.15 42.922c.917 0-8.471-9.148-8.87-7.952-.305.918 1.129 3.511 3.059 5.2 1.398 1.223 3.3 2.752 5.811 2.752ZM548.655 25.49c-6.851-6.607-14.375.611-14.375 3.364 0 2.752 11.928 13.15 13.151 13.15 1.224 0 8.075-9.908 1.224-16.515ZM366.542 27.866c-6.148-5.764-2.689-20.366-6.148-20.366-3.458 0 .769 16.14-8.838 25.746-4.04 4.04-17.292 3.074-16.524 5.764.769 2.69 13.893-1.478 20.751 5.38 6.148 6.148 2.69 22.288 6.148 22.288 3.459 0-.768-11.144 5.764-22.672 6.533-11.528 17.732-7.686 17.292-10.76-.439-3.074-12.296.384-18.445-5.38Z"/><path stroke-linecap="round" d="M357.704 42.084c1.939 2.175 4.227 6.149 4.227 6.149s2.113-4.583 3.843-7.301c1.612-2.532 4.611-6.149 4.611-6.149s-3.531-2.04-5.379-3.842c-1.999-1.95-4.227-5.764-4.227-5.764s-1.963 4.464-3.843 6.916c-1.679 2.19-4.996 4.996-4.996 4.996s3.782 2.772 5.764 4.995Z"/></g><defs><clipPath id="a"><path fill="#fff" d="M0 0h950v132H0z"/></clipPath></defs></svg>