<svg xmlns="http://www.w3.org/2000/svg" width="940" height="133" fill="none"><g clip-path="url(#a)"><path stroke="#000" stroke-linecap="round" d="M-5.5 99c18.5-20 46-27.5 90-25.5S179 99 185 69s-41-37.5-51.5-15c-7.562 16.204 2.3 33.717 23.5 46.584 14.737 8.146 35.5 19.416 71.5 22.916 50.761 4.935 74.385-26.857 98.884-32.759 29.588-7.128 39.7 4.684 40.471 13.916 1.02 12.219-7.822 15.274-10.883 15.274-3.061 0-11.903-3.055-11.563-15.274.34-12.219 12.243-17.846 31.969-21.044 19.725-3.198 66.997 3.394 100.326 28.172 33.328 24.777 56.114 5.091 63.936-5.091 7.822-10.183 6.122-20.252 1.021-23.08-5.102-2.83-17.685-4.753-36.39 13.576-18.705 18.329-40.811 20.704-49.313 24.438-12.955 5.689-14.964 12.898-11.903 15.953 9.357 9.338 27.207-37.336 50.673-46.5 23.466-9.165 16.665-32.924 38.09-36.658 7.482 18.329-24.486 33.942-37.069 42.767 3.741-3.734 19.521-18.26 15.984-35.639-4.421-21.722-20.855-25.456-29.357-27.492-8.502-2.037-23.466 0-33.669 4.751-8.162 3.802-10.024 11.13-5.781 15.614 5.781 6.11 23.277 2.503 33.669-9.165 13.603-15.274 12.923-27.153 12.923-27.153s1.02-11.201-6.122-12.22c-7.141-1.017-12.871 8.12-15.984 19.687-4.136 15.37-7.142 39.033 6.802 43.446 6.286 1.989 12.268-1.023 13.604-7.468 2.04-9.843-12.495-20.435-20.406-23.759-6.461-2.715-18.024-2.715-22.106-10.183-2.729-4.994-1.941-11.04 2.381-13.916 6.122-4.073 19.501-2.089 27.887 15.953C486.5 51 498 36.834 502.5 39c4.5 2.166 0 7 2 10s5.5.5 8.233 4"/></g><defs><clipPath id="a"><path fill="#fff" d="M0 0h940v133H0z"/></clipPath></defs></svg>