<svg xmlns="http://www.w3.org/2000/svg" width="940" height="204" fill="none"><g clip-path="url(#a)"><path fill="#fff" d="M495.012 5.315c5.096 6.123 5.096 6.123 5.096 18.37l-2.038 7.144h15.288c10.193 5.102 10.193 5.102 15.289 12.246 0 9.185 0 9.185-4.077 15.308-7.583 6.075-13.781 8.165-23.443 8.165l10.193 14.288c3.914 8.098 7.178 15.726 9.173 24.493l.633 2.739c.485 2.145.948 4.294 1.406 6.446l7.134-10.206c7.135-6.123 7.135-6.123 12.231-7.144 2.893 2.897 1.02 8.15 1.02 12.247-6.158 18.495-13.332 26.929-29.559 37.76v2.041l2.907-2.124 3.846-2.787 1.907-1.398c8.242-5.95 11.966-6.958 22.937-6.958 6.116 4.082 6.116 4.082 10.193 11.226 1.705 8.535.763 13.015-2.039 21.432-7.108 10.675-13.163 14.669-25.481 18.37-22.424 0-22.424 0-27.675-1.268l-6.916-1.666-3.45-.833c-18.873-4.545-26.907-1.621-43.876 8.23-12.183 7.51-24.437 15.983-29.182 30.235V238l-3.058-3.062c0-15.301 1.953-19.717 11.212-31.637 8.509-7.635 17.486-13.033 27.52-18.369 5.082-2.748 10.179-5.47 15.289-8.165l-1.716-.727c-11.972-5.089-23.794-10.406-35.487-16.112-30.265-14.706-61.58-29.476-95.874-29.15l-2.82.014c-14.621.077-31.788 2.619-42.472 13.318l6.115 2.041 3.058 2.041v2.041h2.038c6.771 9.491 7.288 12.759 6.116 24.493-5.096 8.164-5.096 8.164-10.193 12.247-9.173 1.02-9.173 1.02-17.327-3.062-7.135-10.716-7.135-10.716-7.135-23.473 5.097-10.205 5.097-10.205 11.212-17.349-36.518-4.179-64.068 12.446-93.644 30.836-30.181 18.734-60.284 29.299-95.937 21.212-10.235-2.549-19.531-5.661-29.049-10.205l-3.243-1.548c-5.433-2.6-10.84-5.232-16.203-7.975-21.455-10.974-42.822-17.014-67-17.65l-3.795-.119c-3.046-.095-6.09-.183-9.136-.263v-2.041c37.37 0 62.004 7.439 94.332 23.776 19.388 9.781 39.25 16.357 61.168 16.088l2.231-.013c28.73-.191 53.652-15.929 77.127-30.831 27.756-17.53 53.518-28.033 87.226-23.308l10.193-6.123c45.236-15.098 85.049-1.366 126.196 18.884 7.32 3.592 14.704 7.029 22.127 10.403 1.366.623 2.732 1.245 4.098 1.874 1.916.88 3.836 1.751 5.759 2.621l3.318 1.509c4.497 1.799 9.174 3.117 13.813 4.51 20.192-10.641 36.255-19.635 44.147-41.46 4.668-16.146.438-33.512-6.434-48.348-3.624-6.229-7.119-11.21-12.231-16.329l-17.328-2.041-8.154-3.062 4.077 9.185c0 16.329 0 16.329-5.096 25.514-12.813 8.164-12.813 8.164-24.462 8.164v-2.041l13.25-2.041c11.235-8.438 11.879-9.108 14.27-23.472l-3.058-11.227-2.039-1.02-1.019 7.144c-6.14 14.755-10.97 20.999-24.462 29.596-3.058 1.02-3.058 1.02-13.25 1.02-5.096-3.061-5.096-3.061-7.135-7.144 1.364-6.827 4.694-9.138 10.193-13.267l-10.193-3.061c-6.116-4.083-6.116-4.083-9.173-9.185 0-9.185 0-9.185 4.077-15.309 8.154-4.082 8.154-4.082 17.327-4.082l-9.173-11.226c-2.039-5.102-2.039-5.102-2.039-15.308 4.077-6.123 4.077-6.123 11.212-10.205 9.42 0 13.642 1.962 21.404 7.143l5.097 5.103 2.038-7.144c9.384-12.08 15.637-16.97 30.578-15.308ZM470.55 15.521c-6.766 8.637-6.766 8.637-7.135 18.37l1.401 3.89c1.817 5.414 2.802 10.89 3.695 16.52l2.039 1.02 6.115-11.225c9.173-8.164 9.173-8.164 18.347-12.247 3.773-8.622 3.773-8.622 3.058-20.41-9.778-9.79-18.269-2.866-27.52 4.082Zm-40.77 6.123c-4.077 4.592-4.077 4.592-3.058 14.288 5.417 10.26 5.417 10.259 13.25 16.328l24.462 6.123c-.956-5.334-.956-5.334-3.058-11.226V31.85c-5.305-7.082-8.72-11.415-17.327-14.287-8.248-.756-8.248-.756-14.269 4.082Zm66.251 11.226-7.135 11.226c-8.154 7.144-8.154 7.144-13.25 10.205l1.019 2.041 2.433-.633c11.403-2.824 21.55-3.728 33.241-2.428H497.05l-15.289 3.061c2.783 3.032 2.783 3.032 11.212 6.124l4.077 3.061c16.333-1.882 16.333-1.882 28.539-11.226 1.396-3.653 1.396-3.653 1.02-10.205-3.738-6.463-3.738-6.463-10.193-10.206-10.838-2.527-10.838-2.527-20.385-1.02Zm-14.27 8.164c-7.158 6.938-7.158 6.938-8.154 12.247 9.078-3.635 15.057-9.74 19.366-18.37-4.349-.306-4.349-.306-11.212 6.123Zm-19.365-4.082c-.836 10.693-.836 10.693 3.057 17.35h1.02c-.523-10.515-.523-10.515-3.058-17.35h-1.019Zm-43.828 22.452c-3.961 6.271-3.961 6.271-1.02 14.288 10.134 7.61 9.777 7.144 22.424 7.144 11.932-7.864 11.932-7.864 23.443-16.33v-2.04l-11.212-3.062-9.173-5.103c-10.744-1.075-15.527-.861-24.462 5.103Zm33.635-2.041c2.413 2.824 2.413 2.824 9.173 3.062-2.412-2.824-2.412-2.824-9.173-3.062Zm22.424 2.041v3.062c11.811 3.252 11.811 3.252 18.346 3.061v-2.04c-8.898-4.705-8.898-4.705-18.346-4.083Zm-12.231 7.144-12.231 9.185 3.057 1.02 9.174-7.143v-3.062Zm4.077 0-4.077 5.103c-9.174 6.123-9.174 6.123-23.443 11.226-10.426 6.6-10.426 6.6-13.25 11.226l1.019 5.103c5.27 3.761 5.27 3.761 13.25 3.061 11.847-5.272 15.941-9.68 23.443-20.41 4.799-9.954 4.799-9.954 3.058-15.31Zm66.251 36.74c-8.517 12.182-12.535 23.68-16.308 37.76 10.492-4.203 14.428-11.037 20.385-20.411 4.77-10.111 4.77-10.111 4.077-21.431-2.981-.19-2.981-.19-8.154 4.082Zm-15.48 45.669c-10.552 8.293-21.714 15.458-33.421 22.002a264.018 264.018 0 0 0-8.177 4.788l1.019 2.041c20.135 6.035 38.954 10.445 60.136 4.082 9.308-6.213 13.799-11.852 17.327-22.452.477-8.344.477-8.344-3.057-16.329-12.613-10.103-22.94-2.726-33.827 5.868Zm-231.179-4.847c-5.785 4.827-9.778 8.96-12.231 16.328-.836 11.073-.836 11.073 4.077 19.391 5.85 5.816 5.85 5.816 14.269 6.123 8.625-3.375 8.625-3.375 12.231-11.226 2.345-9.392.415-12.437-4.077-21.431-6.677-6.348-6.677-6.348-14.269-9.185Z"/></g><defs><clipPath id="a"><path fill="#fff" d="M0 0h940v204H0z"/></clipPath></defs></svg>