<svg width="496" height="357" viewBox="0 0 496 357" fill="none" xmlns="http://www.w3.org/2000/svg">
<g clip-path="url(#clip0_336_13)">
<rect width="496" height="357" fill="white"/>
<mask id="path-1-inside-1_336_13" fill="white">
<path fill-rule="evenodd" clip-rule="evenodd" d="M-139 398.725V955.949H251H641V398.725V-158.5H251H-139V398.725ZM154.493 15.2457C156.112 16.8609 156.04 18.1332 154.209 20.364C152.311 22.6728 150.005 21.6207 149.609 18.2657C149.203 14.8269 152.212 12.9662 154.493 15.2457ZM77.6927 17.8663C78.1373 18.6943 78.5078 22.6397 78.5176 26.6338C78.5527 41.3963 85.405 48.2584 100.145 48.2935C106.083 48.3071 107.36 48.5214 107.36 49.4995C107.36 51.0153 104.234 52.2077 100.258 52.2077C89.537 52.2077 80.06 66.8027 80.06 83.3148C80.06 87.7746 79.6993 90.5899 79.009 91.5349C77.0512 94.208 76.16 92.1544 76.16 84.9768C76.16 63.9406 67.6697 56.1667 46.52 57.8364C44.5876 57.9903 43.79 57.7312 43.79 56.9538C43.79 55.3659 48.5266 53.8949 53.8618 53.8248C65.5891 53.6748 74.2451 41.9613 73.9253 26.6766C73.7381 17.7591 75.4678 13.7124 77.6927 17.8663ZM274.413 29.2251C281.908 34.1485 285.799 45.7859 282.811 54.3508C282.109 56.3615 282.283 57.3065 283.936 60.5076C289.151 70.5922 286.45 73.9394 276.784 69.3706C272.948 67.5586 270.86 67.0657 267.213 67.1183C256.202 67.2722 247.097 57.8773 247.005 46.2613C246.988 43.9896 246.169 41.7003 244.219 38.468C238.833 29.5504 242.304 24.4088 250.855 28.6367C253.768 30.0765 253.865 30.0765 255.862 28.623C260.302 25.3907 269.003 25.6732 274.413 29.2251ZM258.313 31.3858C255.125 33.1899 251.954 37.1256 251.169 40.2546C250.597 42.5283 255.689 48.6344 264.819 56.6245C272.18 63.0677 272.441 63.1573 275.214 60.1958C287.916 46.6315 273.824 22.6085 258.313 31.3858ZM244.64 31.1383C244.64 32.3307 247.21 37.4003 247.815 37.4003C249.956 37.4003 251.013 33.2192 249.221 31.8436C247.228 30.3122 244.64 29.9148 244.64 31.1383ZM74.1691 42.6199C72.9874 45.0319 70.2983 48.7883 68.1942 50.9705L64.3664 54.9353L66.1682 56.0615C69.3935 58.0741 75.2962 64.7257 76.2868 67.4612C77.5757 71.0228 77.718 70.9331 80.6079 64.7881C81.9807 61.8656 84.7868 57.6046 86.8421 55.3192C89.1938 52.7064 90.2137 51.0426 89.5916 50.836C86.6666 49.8619 80.9219 45.1216 78.773 41.9088L76.316 38.2361L74.1691 42.6199ZM349.004 48.4669C350.628 50.0898 350.108 52.9441 348.013 53.8969C344.691 55.4107 342.628 52.5506 344.507 49.0397C345.418 47.3407 347.598 47.0621 349.004 48.4669ZM250.88 49.4138C250.88 51.6037 253.202 56.3868 255.406 58.7346C258.499 62.0312 267.322 65.6707 266.349 63.2508C265.632 61.4662 250.88 48.2701 250.88 49.4138ZM277.402 62.7248C276.398 63.7964 275.721 64.7881 275.902 64.9323C281.55 69.4349 284.677 68.3828 281.522 63.0443C279.894 60.2913 279.705 60.2777 277.402 62.7248ZM296.446 115.807C298.006 116.405 298.086 120.468 296.549 121.056C294.455 121.859 291.873 118.995 292.924 117.035C293.885 115.238 294.451 115.042 296.446 115.807ZM366.44 117.959C360.861 118.252 351.612 119.884 351.133 120.66C349.902 122.649 351.667 125.178 354.282 125.178C355.93 125.178 357.086 125.626 357.373 126.376C358.168 128.443 356.251 128.675 348.997 127.386C346.261 126.898 345.641 129.425 347.539 133.33C348.486 135.276 349.662 136.868 350.154 136.868C351.799 136.868 356.214 133.69 356.702 132.153C357.552 129.478 359.529 129.073 363.299 130.799C368.273 133.077 372.193 133.466 373.542 131.816C374.141 131.085 375.455 129.657 376.463 128.646C379.435 125.659 376.806 119.466 372.07 118.297C370.904 118.01 368.371 117.856 366.44 117.959ZM371.315 122.93C372.957 124.903 372.982 125.246 371.629 127.097C370.395 128.784 368.78 128.091 368.78 125.874C368.78 124.449 368.328 124.344 363.15 124.557C355.826 124.859 354.508 122.861 361.146 121.523C366.473 120.447 369.615 120.882 371.315 122.93ZM359.42 134.546C359.42 134.984 357.883 136.424 356.006 137.747L352.591 140.151L353.853 143.381C360.169 159.555 374.217 157.349 374.236 140.18L374.24 136.089L370.145 136.061C367.893 136.046 365.173 135.532 364.1 134.92C361.805 133.609 359.42 133.42 359.42 134.546ZM362.994 138.232C363.217 138.982 363.909 140.589 364.529 141.801C366.586 145.819 365.594 150.857 362.948 149.842C361.965 149.466 361.758 148.782 362.123 147.124C362.456 145.606 362.23 144.595 361.405 143.911C359.761 142.547 359.753 136.868 361.395 136.868C362.051 136.868 362.772 137.482 362.994 138.232ZM375.254 173.002C367.704 176.965 366.019 178.21 367.216 178.95C370.229 180.811 378.507 176.897 382.038 171.94C384.323 168.733 382.99 168.942 375.254 173.002ZM138.68 175.02C135.184 176.883 131.334 180.914 132.011 182.005C133.458 184.345 139.834 182.025 142.592 178.157C145.583 173.961 143.621 172.388 138.68 175.02ZM157.205 184.086C159.028 185.202 161.934 186.303 163.66 186.535C168.663 187.205 168.441 188.571 163.396 188.154C158.547 187.753 150.38 183.137 150.38 180.797C150.38 179.642 150.522 179.644 152.135 180.799C153.1 181.491 155.382 182.97 157.205 184.086ZM147.26 188.694C147.794 189.337 148.715 189.863 149.306 189.863C150.571 189.863 150.751 191.881 149.551 192.622C148.648 193.179 145.994 191.09 144.821 188.897C143.881 187.145 145.837 186.981 147.26 188.694ZM131.449 197.851C130.989 205.405 129.967 209.346 128.468 209.346C127.904 209.346 127.748 208.561 128.045 207.203C128.3 206.024 128.721 202.254 128.981 198.825C129.533 191.511 129.743 190.642 130.97 190.642C131.64 190.642 131.771 192.589 131.449 197.851ZM139.46 195.365C139.46 197.054 139.148 198.436 138.766 198.436C138.027 198.436 137.106 193.004 137.672 191.992C138.45 190.609 139.46 192.517 139.46 195.365ZM267.353 203.696C268.965 207.147 269.422 216.36 267.979 216.36C267.101 216.36 266.692 215.047 266.341 211.1C266.081 208.206 265.643 204.875 265.364 203.696C265.081 202.5 265.188 201.553 265.604 201.553C266.013 201.553 266.801 202.517 267.353 203.696ZM274.388 209.151C274.353 210.854 272.089 215.961 271.243 216.243C270.022 216.649 270.728 211.339 272.118 209.666C273.095 208.489 274.408 208.191 274.388 209.151ZM263.129 212.828C264.533 216.183 264.553 217.14 263.213 217.14C262.363 217.14 260.36 212.565 260.36 210.62C260.36 209.079 262.164 210.519 263.129 212.828ZM190.308 221.621C193.003 224.762 195.3 234.285 193.364 234.285C192.56 234.285 191.732 232.413 191.695 230.519C191.683 229.804 190.807 227.466 189.752 225.323C187.198 220.132 187.471 218.313 190.308 221.621ZM209.66 224.185C209.66 224.631 208.905 226.016 207.983 227.261C207.063 228.506 206.095 230.831 205.836 232.426C205.247 236.052 203.42 236.956 203.42 233.621C203.42 230.55 204.682 227.31 206.727 225.128C208.49 223.25 209.66 222.872 209.66 224.185ZM199.994 226.946C199.733 227.624 199.52 229.728 199.52 231.622C199.52 234.162 199.214 235.064 198.35 235.064C197.135 235.064 196.568 227.363 197.701 226.233C198.758 225.175 200.47 225.706 199.994 226.946ZM316.29 237.402C316.29 243.115 315.485 244.335 314.104 240.715C313.084 238.041 313.903 231.947 315.284 231.947C316.011 231.947 316.29 233.463 316.29 237.402ZM323.708 237.987C323.047 240.023 322.391 242.149 322.249 242.712C321.873 244.208 320.42 243.029 320.42 241.229C320.42 238.743 322.586 234.285 323.794 234.285C324.745 234.285 324.733 234.821 323.708 237.987ZM310.623 237.831C311.887 239.756 312.277 242.862 311.255 242.852C310.567 242.844 307.16 237.067 307.16 235.908C307.16 234.628 309.303 235.816 310.623 237.831ZM445.22 244.336C445.22 251.078 459.775 271.693 464.535 271.693C466.666 271.693 466.682 271.239 464.751 265.749C460.409 253.402 445.22 236.752 445.22 244.336ZM436.64 251.415C436.64 254.37 418.431 259.194 411.616 258.043C406.641 257.203 408.1 256.367 415.385 255.882C421.834 255.452 432.251 252.901 433.871 251.358C434.856 250.419 436.64 250.454 436.64 251.415ZM435.965 260.412C435.952 261.476 431.254 263.744 428.45 264.042C424.497 264.461 425.1 262.965 429.454 261.546C431.724 260.808 433.809 259.976 434.086 259.697C434.772 259.013 435.979 259.473 435.965 260.412ZM444.44 266.996C444.44 267.362 442.726 268.716 440.632 270.004C435.944 272.885 433.062 275.656 429.753 280.463C427.498 283.738 424.94 285.351 424.94 283.5C424.94 282.354 429.232 276.899 432.949 273.322C439.232 267.274 444.44 264.406 444.44 266.996ZM42.4534 272.531C35.059 278.343 21.9491 305.204 26.5082 305.204C30.9269 305.204 42.0653 288.577 45.4583 276.913C47.2231 270.849 46.3027 269.505 42.4534 272.531ZM449.12 274.766C449.12 275.171 447.246 277.713 444.955 280.416C439.762 286.547 436.728 291.319 436.131 294.3C435.519 297.36 433.738 298.884 433.003 296.975C432.171 294.804 437.529 285.254 442.925 279.292C447.42 274.323 449.12 273.082 449.12 274.766ZM62.9186 281.499C68.361 281.719 70.0205 282.561 68.1212 284.137C66.4793 285.497 55.0153 284.823 51.0685 283.134C46.6868 281.257 48.0576 279.917 53.5703 280.687C55.9785 281.022 60.1866 281.388 62.9186 281.499ZM245.938 286.695C248.313 291.893 250.05 301.789 248.806 303.032C247.749 304.088 247.609 303.7 246.375 296.377C245.388 290.518 243.418 284.942 242.336 284.942C241.952 284.942 241.64 284.416 241.64 283.773C241.64 281.106 244.167 282.824 245.938 286.695ZM253.451 294.37C253.155 303.007 253.014 303.632 251.679 302.298C250.487 301.107 251.597 285.526 252.841 285.955C253.455 286.167 253.644 288.78 253.451 294.37ZM259.26 288.254C258.987 289.647 258.552 293.505 258.291 296.827C258.032 300.149 257.521 302.867 257.154 302.867C255.296 302.867 255.391 293.694 257.306 288.205C258.453 284.914 259.908 284.952 259.26 288.254ZM52.88 287.572C56.7781 288.737 57.5639 290.652 54.2977 291.028C50.8403 291.428 46.3572 288.601 47.9406 287.021C48.627 286.333 48.7928 286.352 52.88 287.572ZM346.805 289.431C349.82 293.659 352.092 307.543 349.771 307.543C348.82 307.543 348.5 306.798 348.5 304.589C348.5 300.466 346.404 292.745 344.62 290.29C343.229 288.381 343.251 287.28 344.676 287.28C345.006 287.28 345.963 288.248 346.805 289.431ZM354.986 290.629C354.68 291.126 354.235 295.021 353.999 299.282C353.691 304.848 353.27 307.128 352.503 307.381C351.017 307.872 351.558 291.96 353.09 290.117C354.239 288.731 355.885 289.177 354.986 290.629ZM72.965 290.826C74.603 291.332 74.0512 293.318 72.1382 293.797C68.3611 294.744 63.1253 292.112 65.0188 290.218C65.4458 289.793 70.9916 290.218 72.965 290.826ZM266.6 290.3C266.6 290.674 265.758 292.515 264.728 294.391C263.696 296.266 262.616 298.941 262.326 300.334C261.509 304.246 260.091 303.455 260.555 299.346C261.076 294.728 266.6 286.462 266.6 290.3ZM361.45 291.371C361.179 292.336 360.364 296.193 359.636 299.944C358.909 303.695 358.037 306.763 357.696 306.763C356.146 306.763 357.815 293.622 359.767 290.467C360.732 288.907 361.957 289.565 361.45 291.371ZM372.68 291.782C372.68 292.116 371.282 294.245 369.574 296.517C367.865 298.789 366.097 302.023 365.644 303.706C364.549 307.767 362.981 307.755 363.527 303.689C364.174 298.872 372.68 287.806 372.68 291.782ZM153.313 304.219C151.336 307.118 149.481 310.543 149.196 311.829C148.009 317.158 147.937 317.294 147.092 315.788C145.326 312.634 153.845 295.886 156.082 298.12C156.667 298.705 155.852 300.499 153.313 304.219ZM130.907 303.322C132.07 306.029 134 315.488 134 318.473C134 321.841 131.876 317.534 130.771 311.924C130.034 308.178 128.727 303.765 127.867 302.118C127.009 300.472 126.512 298.917 126.766 298.664C127.573 297.857 129.488 300.012 130.907 303.322ZM51.3415 303.967C56.2633 306.073 61.9748 307.961 64.0321 308.162C68.5444 308.602 69.0572 310.88 64.736 311.297C60.7619 311.679 42.389 304.673 40.8524 302.187C40.2557 301.222 41.0026 299.525 41.8586 299.903C42.1511 300.032 46.4197 301.861 51.3415 303.967ZM344.426 300.963C345.413 301.653 346.16 302.995 346.16 304.08C346.16 306.539 345.093 306.518 343.962 304.035C343.356 302.707 342.447 302.087 341.108 302.087C339.879 302.087 339.14 301.649 339.14 300.918C339.14 299.377 342.198 299.402 344.426 300.963ZM138.427 310.66C137.572 318.771 137.397 319.344 136.276 317.65C135.431 316.378 136.104 306.726 137.245 303.714C138.635 300.045 139.197 303.348 138.427 310.66ZM144.92 307.957C144.92 311.909 143.305 317.674 142.198 317.674C141.736 317.674 142.432 306.471 143.009 304.62C143.795 302.091 144.92 304.057 144.92 307.957ZM44.6432 312.374C47.5 315.71 47.8022 317.109 45.7528 317.506C44.3956 317.769 39.308 311.016 40.0081 309.882C40.8505 308.523 41.7631 309.014 44.6432 312.374Z"/>
</mask>
<path fill-rule="evenodd" clip-rule="evenodd" d="M-139 398.725V955.949H251H641V398.725V-158.5H251H-139V398.725ZM154.493 15.2457C156.112 16.8609 156.04 18.1332 154.209 20.364C152.311 22.6728 150.005 21.6207 149.609 18.2657C149.203 14.8269 152.212 12.9662 154.493 15.2457ZM77.6927 17.8663C78.1373 18.6943 78.5078 22.6397 78.5176 26.6338C78.5527 41.3963 85.405 48.2584 100.145 48.2935C106.083 48.3071 107.36 48.5214 107.36 49.4995C107.36 51.0153 104.234 52.2077 100.258 52.2077C89.537 52.2077 80.06 66.8027 80.06 83.3148C80.06 87.7746 79.6993 90.5899 79.009 91.5349C77.0512 94.208 76.16 92.1544 76.16 84.9768C76.16 63.9406 67.6697 56.1667 46.52 57.8364C44.5876 57.9903 43.79 57.7312 43.79 56.9538C43.79 55.3659 48.5266 53.8949 53.8618 53.8248C65.5891 53.6748 74.2451 41.9613 73.9253 26.6766C73.7381 17.7591 75.4678 13.7124 77.6927 17.8663ZM274.413 29.2251C281.908 34.1485 285.799 45.7859 282.811 54.3508C282.109 56.3615 282.283 57.3065 283.936 60.5076C289.151 70.5922 286.45 73.9394 276.784 69.3706C272.948 67.5586 270.86 67.0657 267.213 67.1183C256.202 67.2722 247.097 57.8773 247.005 46.2613C246.988 43.9896 246.169 41.7003 244.219 38.468C238.833 29.5504 242.304 24.4088 250.855 28.6367C253.768 30.0765 253.865 30.0765 255.862 28.623C260.302 25.3907 269.003 25.6732 274.413 29.2251ZM258.313 31.3858C255.125 33.1899 251.954 37.1256 251.169 40.2546C250.597 42.5283 255.689 48.6344 264.819 56.6245C272.18 63.0677 272.441 63.1573 275.214 60.1958C287.916 46.6315 273.824 22.6085 258.313 31.3858ZM244.64 31.1383C244.64 32.3307 247.21 37.4003 247.815 37.4003C249.956 37.4003 251.013 33.2192 249.221 31.8436C247.228 30.3122 244.64 29.9148 244.64 31.1383ZM74.1691 42.6199C72.9874 45.0319 70.2983 48.7883 68.1942 50.9705L64.3664 54.9353L66.1682 56.0615C69.3935 58.0741 75.2962 64.7257 76.2868 67.4612C77.5757 71.0228 77.718 70.9331 80.6079 64.7881C81.9807 61.8656 84.7868 57.6046 86.8421 55.3192C89.1938 52.7064 90.2137 51.0426 89.5916 50.836C86.6666 49.8619 80.9219 45.1216 78.773 41.9088L76.316 38.2361L74.1691 42.6199ZM349.004 48.4669C350.628 50.0898 350.108 52.9441 348.013 53.8969C344.691 55.4107 342.628 52.5506 344.507 49.0397C345.418 47.3407 347.598 47.0621 349.004 48.4669ZM250.88 49.4138C250.88 51.6037 253.202 56.3868 255.406 58.7346C258.499 62.0312 267.322 65.6707 266.349 63.2508C265.632 61.4662 250.88 48.2701 250.88 49.4138ZM277.402 62.7248C276.398 63.7964 275.721 64.7881 275.902 64.9323C281.55 69.4349 284.677 68.3828 281.522 63.0443C279.894 60.2913 279.705 60.2777 277.402 62.7248ZM296.446 115.807C298.006 116.405 298.086 120.468 296.549 121.056C294.455 121.859 291.873 118.995 292.924 117.035C293.885 115.238 294.451 115.042 296.446 115.807ZM366.44 117.959C360.861 118.252 351.612 119.884 351.133 120.66C349.902 122.649 351.667 125.178 354.282 125.178C355.93 125.178 357.086 125.626 357.373 126.376C358.168 128.443 356.251 128.675 348.997 127.386C346.261 126.898 345.641 129.425 347.539 133.33C348.486 135.276 349.662 136.868 350.154 136.868C351.799 136.868 356.214 133.69 356.702 132.153C357.552 129.478 359.529 129.073 363.299 130.799C368.273 133.077 372.193 133.466 373.542 131.816C374.141 131.085 375.455 129.657 376.463 128.646C379.435 125.659 376.806 119.466 372.07 118.297C370.904 118.01 368.371 117.856 366.44 117.959ZM371.315 122.93C372.957 124.903 372.982 125.246 371.629 127.097C370.395 128.784 368.78 128.091 368.78 125.874C368.78 124.449 368.328 124.344 363.15 124.557C355.826 124.859 354.508 122.861 361.146 121.523C366.473 120.447 369.615 120.882 371.315 122.93ZM359.42 134.546C359.42 134.984 357.883 136.424 356.006 137.747L352.591 140.151L353.853 143.381C360.169 159.555 374.217 157.349 374.236 140.18L374.24 136.089L370.145 136.061C367.893 136.046 365.173 135.532 364.1 134.92C361.805 133.609 359.42 133.42 359.42 134.546ZM362.994 138.232C363.217 138.982 363.909 140.589 364.529 141.801C366.586 145.819 365.594 150.857 362.948 149.842C361.965 149.466 361.758 148.782 362.123 147.124C362.456 145.606 362.23 144.595 361.405 143.911C359.761 142.547 359.753 136.868 361.395 136.868C362.051 136.868 362.772 137.482 362.994 138.232ZM375.254 173.002C367.704 176.965 366.019 178.21 367.216 178.95C370.229 180.811 378.507 176.897 382.038 171.94C384.323 168.733 382.99 168.942 375.254 173.002ZM138.68 175.02C135.184 176.883 131.334 180.914 132.011 182.005C133.458 184.345 139.834 182.025 142.592 178.157C145.583 173.961 143.621 172.388 138.68 175.02ZM157.205 184.086C159.028 185.202 161.934 186.303 163.66 186.535C168.663 187.205 168.441 188.571 163.396 188.154C158.547 187.753 150.38 183.137 150.38 180.797C150.38 179.642 150.522 179.644 152.135 180.799C153.1 181.491 155.382 182.97 157.205 184.086ZM147.26 188.694C147.794 189.337 148.715 189.863 149.306 189.863C150.571 189.863 150.751 191.881 149.551 192.622C148.648 193.179 145.994 191.09 144.821 188.897C143.881 187.145 145.837 186.981 147.26 188.694ZM131.449 197.851C130.989 205.405 129.967 209.346 128.468 209.346C127.904 209.346 127.748 208.561 128.045 207.203C128.3 206.024 128.721 202.254 128.981 198.825C129.533 191.511 129.743 190.642 130.97 190.642C131.64 190.642 131.771 192.589 131.449 197.851ZM139.46 195.365C139.46 197.054 139.148 198.436 138.766 198.436C138.027 198.436 137.106 193.004 137.672 191.992C138.45 190.609 139.46 192.517 139.46 195.365ZM267.353 203.696C268.965 207.147 269.422 216.36 267.979 216.36C267.101 216.36 266.692 215.047 266.341 211.1C266.081 208.206 265.643 204.875 265.364 203.696C265.081 202.5 265.188 201.553 265.604 201.553C266.013 201.553 266.801 202.517 267.353 203.696ZM274.388 209.151C274.353 210.854 272.089 215.961 271.243 216.243C270.022 216.649 270.728 211.339 272.118 209.666C273.095 208.489 274.408 208.191 274.388 209.151ZM263.129 212.828C264.533 216.183 264.553 217.14 263.213 217.14C262.363 217.14 260.36 212.565 260.36 210.62C260.36 209.079 262.164 210.519 263.129 212.828ZM190.308 221.621C193.003 224.762 195.3 234.285 193.364 234.285C192.56 234.285 191.732 232.413 191.695 230.519C191.683 229.804 190.807 227.466 189.752 225.323C187.198 220.132 187.471 218.313 190.308 221.621ZM209.66 224.185C209.66 224.631 208.905 226.016 207.983 227.261C207.063 228.506 206.095 230.831 205.836 232.426C205.247 236.052 203.42 236.956 203.42 233.621C203.42 230.55 204.682 227.31 206.727 225.128C208.49 223.25 209.66 222.872 209.66 224.185ZM199.994 226.946C199.733 227.624 199.52 229.728 199.52 231.622C199.52 234.162 199.214 235.064 198.35 235.064C197.135 235.064 196.568 227.363 197.701 226.233C198.758 225.175 200.47 225.706 199.994 226.946ZM316.29 237.402C316.29 243.115 315.485 244.335 314.104 240.715C313.084 238.041 313.903 231.947 315.284 231.947C316.011 231.947 316.29 233.463 316.29 237.402ZM323.708 237.987C323.047 240.023 322.391 242.149 322.249 242.712C321.873 244.208 320.42 243.029 320.42 241.229C320.42 238.743 322.586 234.285 323.794 234.285C324.745 234.285 324.733 234.821 323.708 237.987ZM310.623 237.831C311.887 239.756 312.277 242.862 311.255 242.852C310.567 242.844 307.16 237.067 307.16 235.908C307.16 234.628 309.303 235.816 310.623 237.831ZM445.22 244.336C445.22 251.078 459.775 271.693 464.535 271.693C466.666 271.693 466.682 271.239 464.751 265.749C460.409 253.402 445.22 236.752 445.22 244.336ZM436.64 251.415C436.64 254.37 418.431 259.194 411.616 258.043C406.641 257.203 408.1 256.367 415.385 255.882C421.834 255.452 432.251 252.901 433.871 251.358C434.856 250.419 436.64 250.454 436.64 251.415ZM435.965 260.412C435.952 261.476 431.254 263.744 428.45 264.042C424.497 264.461 425.1 262.965 429.454 261.546C431.724 260.808 433.809 259.976 434.086 259.697C434.772 259.013 435.979 259.473 435.965 260.412ZM444.44 266.996C444.44 267.362 442.726 268.716 440.632 270.004C435.944 272.885 433.062 275.656 429.753 280.463C427.498 283.738 424.94 285.351 424.94 283.5C424.94 282.354 429.232 276.899 432.949 273.322C439.232 267.274 444.44 264.406 444.44 266.996ZM42.4534 272.531C35.059 278.343 21.9491 305.204 26.5082 305.204C30.9269 305.204 42.0653 288.577 45.4583 276.913C47.2231 270.849 46.3027 269.505 42.4534 272.531ZM449.12 274.766C449.12 275.171 447.246 277.713 444.955 280.416C439.762 286.547 436.728 291.319 436.131 294.3C435.519 297.36 433.738 298.884 433.003 296.975C432.171 294.804 437.529 285.254 442.925 279.292C447.42 274.323 449.12 273.082 449.12 274.766ZM62.9186 281.499C68.361 281.719 70.0205 282.561 68.1212 284.137C66.4793 285.497 55.0153 284.823 51.0685 283.134C46.6868 281.257 48.0576 279.917 53.5703 280.687C55.9785 281.022 60.1866 281.388 62.9186 281.499ZM245.938 286.695C248.313 291.893 250.05 301.789 248.806 303.032C247.749 304.088 247.609 303.7 246.375 296.377C245.388 290.518 243.418 284.942 242.336 284.942C241.952 284.942 241.64 284.416 241.64 283.773C241.64 281.106 244.167 282.824 245.938 286.695ZM253.451 294.37C253.155 303.007 253.014 303.632 251.679 302.298C250.487 301.107 251.597 285.526 252.841 285.955C253.455 286.167 253.644 288.78 253.451 294.37ZM259.26 288.254C258.987 289.647 258.552 293.505 258.291 296.827C258.032 300.149 257.521 302.867 257.154 302.867C255.296 302.867 255.391 293.694 257.306 288.205C258.453 284.914 259.908 284.952 259.26 288.254ZM52.88 287.572C56.7781 288.737 57.5639 290.652 54.2977 291.028C50.8403 291.428 46.3572 288.601 47.9406 287.021C48.627 286.333 48.7928 286.352 52.88 287.572ZM346.805 289.431C349.82 293.659 352.092 307.543 349.771 307.543C348.82 307.543 348.5 306.798 348.5 304.589C348.5 300.466 346.404 292.745 344.62 290.29C343.229 288.381 343.251 287.28 344.676 287.28C345.006 287.28 345.963 288.248 346.805 289.431ZM354.986 290.629C354.68 291.126 354.235 295.021 353.999 299.282C353.691 304.848 353.27 307.128 352.503 307.381C351.017 307.872 351.558 291.96 353.09 290.117C354.239 288.731 355.885 289.177 354.986 290.629ZM72.965 290.826C74.603 291.332 74.0512 293.318 72.1382 293.797C68.3611 294.744 63.1253 292.112 65.0188 290.218C65.4458 289.793 70.9916 290.218 72.965 290.826ZM266.6 290.3C266.6 290.674 265.758 292.515 264.728 294.391C263.696 296.266 262.616 298.941 262.326 300.334C261.509 304.246 260.091 303.455 260.555 299.346C261.076 294.728 266.6 286.462 266.6 290.3ZM361.45 291.371C361.179 292.336 360.364 296.193 359.636 299.944C358.909 303.695 358.037 306.763 357.696 306.763C356.146 306.763 357.815 293.622 359.767 290.467C360.732 288.907 361.957 289.565 361.45 291.371ZM372.68 291.782C372.68 292.116 371.282 294.245 369.574 296.517C367.865 298.789 366.097 302.023 365.644 303.706C364.549 307.767 362.981 307.755 363.527 303.689C364.174 298.872 372.68 287.806 372.68 291.782ZM153.313 304.219C151.336 307.118 149.481 310.543 149.196 311.829C148.009 317.158 147.937 317.294 147.092 315.788C145.326 312.634 153.845 295.886 156.082 298.12C156.667 298.705 155.852 300.499 153.313 304.219ZM130.907 303.322C132.07 306.029 134 315.488 134 318.473C134 321.841 131.876 317.534 130.771 311.924C130.034 308.178 128.727 303.765 127.867 302.118C127.009 300.472 126.512 298.917 126.766 298.664C127.573 297.857 129.488 300.012 130.907 303.322ZM51.3415 303.967C56.2633 306.073 61.9748 307.961 64.0321 308.162C68.5444 308.602 69.0572 310.88 64.736 311.297C60.7619 311.679 42.389 304.673 40.8524 302.187C40.2557 301.222 41.0026 299.525 41.8586 299.903C42.1511 300.032 46.4197 301.861 51.3415 303.967ZM344.426 300.963C345.413 301.653 346.16 302.995 346.16 304.08C346.16 306.539 345.093 306.518 343.962 304.035C343.356 302.707 342.447 302.087 341.108 302.087C339.879 302.087 339.14 301.649 339.14 300.918C339.14 299.377 342.198 299.402 344.426 300.963ZM138.427 310.66C137.572 318.771 137.397 319.344 136.276 317.65C135.431 316.378 136.104 306.726 137.245 303.714C138.635 300.045 139.197 303.348 138.427 310.66ZM144.92 307.957C144.92 311.909 143.305 317.674 142.198 317.674C141.736 317.674 142.432 306.471 143.009 304.62C143.795 302.091 144.92 304.057 144.92 307.957ZM44.6432 312.374C47.5 315.71 47.8022 317.109 45.7528 317.506C44.3956 317.769 39.308 311.016 40.0081 309.882C40.8505 308.523 41.7631 309.014 44.6432 312.374Z" stroke="black" stroke-width="2" mask="url(#path-1-inside-1_336_13)"/>
</g>
<defs>
<clipPath id="clip0_336_13">
<rect width="496" height="357" fill="white"/>
</clipPath>
</defs>
</svg>
